<?xml version="1.0" standalone="no"?>
<!DOCTYPE svg PUBLIC "-//W3C//DTD SVG 1.1//EN" "http://www.w3.org/Graphics/SVG/1.1/DTD/svg11.dtd" >
<svg xmlns="http://www.w3.org/2000/svg" xmlns:xlink="http://www.w3.org/1999/xlink" version="1.1">
<metadata>
Created by FontForge 20200427 at Wed Dec  3 00:03:40 2014
 By www
Copyright (c) 2014 Monotype Imaging Inc. All rights reserved.
</metadata>
<defs>
<font id="FuturaLTW01-Medium" horiz-adv-x="578" >
  <font-face 
    font-family="FuturaLTW01-Medium"
    font-weight="500"
    font-stretch="normal"
    units-per-em="1000"
    panose-1="2 11 5 2 2 2 4 2 3 3"
    ascent="800"
    descent="-200"
    x-height="468"
    cap-height="754"
    bbox="-163 -268 1113 995"
    underline-thickness="50"
    underline-position="-175"
    unicode-range="U+000D-2122"
  />
<missing-glyph horiz-adv-x="512" 
d="M512 718v-718h-512v718h512zM462 50v617h-412v-617h412zM337 375q-47 -45 -56.5 -61t-9.5 -80h-46l-2 20q0 87 54 132q55 46 55 88q0 36 -22.5 60.5t-53.5 24.5t-53.5 -22t-28.5 -73l-50 8q7 72 44 104.5t91 32.5t89 -35.5t35 -95.5t-46 -103zM222 184h56v-67h-56v67z
" />
    <glyph glyph-name=".notdef" horiz-adv-x="512" 
d="M512 718v-718h-512v718h512zM462 50v617h-412v-617h412zM337 375q-47 -45 -56.5 -61t-9.5 -80h-46l-2 20q0 87 54 132q55 46 55 88q0 36 -22.5 60.5t-53.5 24.5t-53.5 -22t-28.5 -73l-50 8q7 72 44 104.5t91 32.5t89 -35.5t35 -95.5t-46 -103zM222 184h56v-67h-56v67z
" />
    <glyph glyph-name="glyph1" horiz-adv-x="0" 
 />
    <glyph glyph-name="glyph1" horiz-adv-x="0" 
 />
    <glyph glyph-name="uni000D" unicode="&#xd;" horiz-adv-x="289" 
 />
    <glyph glyph-name="space" unicode=" " horiz-adv-x="289" 
 />
    <glyph glyph-name="exclam" unicode="!" horiz-adv-x="321" 
d="M206 754v-580h-90v580h90zM202 1q-17 -17 -41 -17t-41 17t-17 41q0 23 17 40.5t41 17.5t41 -17.5t17 -40.5q0 -24 -17 -41z" />
    <glyph glyph-name="quotedbl" unicode="&#x22;" horiz-adv-x="439" 
d="M188 754l-18 -328h-62l-18 328h98zM349 754l-18 -328h-62l-18 328h98z" />
    <glyph glyph-name="numbersign" unicode="#" 
d="M294 718l-36 -194h124l35 194h79l-35 -194h92v-80h-107l-27 -154h101v-80h-117l-38 -210h-76l37 210h-123l-40 -210h-75l37 210h-100v80h115l27 154h-105v80h119l36 194h77zM218 290h123l27 154h-123z" />
    <glyph glyph-name="dollar" unicode="$" 
d="M283 860h50v-90q56 -5 100 -35t71 -81l-79 -45q-16 30 -38 47t-54 27v-235q104 -45 149.5 -101.5t45.5 -128.5q0 -57 -29 -109.5t-75.5 -86.5t-90.5 -38v-95h-50v95q-88 3 -152.5 61.5t-80.5 148.5l90 19q13 -64 45 -98.5t98 -42.5v300q-96 44 -138 88t-42 113
q0 72 52.5 131.5t127.5 65.5v90zM283 472v211q-39 -6 -66 -35t-27 -68t24.5 -65.5t68.5 -42.5zM333 78q44 9 74.5 48t30.5 88q0 42 -24 73.5t-81 61.5v-271z" />
    <glyph glyph-name="percent" unicode="%" horiz-adv-x="708" 
d="M193 427q-71 0 -123.5 51.5t-52.5 119.5q0 71 53 121.5t123 50.5q71 0 123.5 -51t52.5 -121q0 -69 -52.5 -120t-123.5 -51zM552 770l45 -26l-440 -760l-46 25zM309 598q0 47 -35.5 79.5t-81.5 32.5t-80.5 -33t-34.5 -79q0 -45 35 -78t81 -33q45 0 80.5 32.5t35.5 78.5z
M516 -16q-71 0 -123.5 51t-52.5 120q0 70 52.5 121t123.5 51q73 0 124.5 -51.5t51.5 -120.5q0 -70 -53 -120.5t-123 -50.5zM632 155q0 47 -35.5 79.5t-81.5 32.5q-45 0 -80 -33t-35 -79t35.5 -78.5t80.5 -32.5t80.5 32.5t35.5 78.5z" />
    <glyph glyph-name="ampersand" unicode="&#x26;" horiz-adv-x="692" 
d="M360 425l157 -190l88 102l60 -62l-92 -108l135 -167h-116l-82 102q-43 -51 -101 -84.5t-125 -33.5q-97 0 -164 63.5t-67 158.5q0 52 27 97.5t70.5 77.5t81.5 59q-32 33 -57.5 75.5t-25.5 89.5q0 74 48 119.5t126 45.5q73 0 123.5 -43t50.5 -114q0 -49 -32.5 -93
t-104.5 -95zM282 522l25 -32l12 8q50 36 70 60t20 56q0 40 -25 61t-63 21q-34 0 -59 -22.5t-25 -57.5q0 -20 9 -40t36 -54zM454 168l-167 204l-55 -38q-38 -26 -64.5 -58.5t-26.5 -68.5q0 -54 43 -96.5t97 -42.5q39 0 79 22.5t94 77.5z" />
    <glyph glyph-name="quotesingle" unicode="'" horiz-adv-x="277" 
d="M188 754l-18 -328h-62l-18 328h98z" />
    <glyph glyph-name="parenleft" unicode="(" horiz-adv-x="292" 
d="M235 754q-39 -79 -62.5 -195t-23.5 -251q0 -121 22 -241.5t64 -204.5l-74 -55q-47 90 -75.5 226.5t-28.5 274.5t28 272.5t76 228.5z" />
    <glyph glyph-name="parenright" unicode=")" horiz-adv-x="292" 
d="M131 809q49 -95 76.5 -230t27.5 -271t-28.5 -273.5t-75.5 -227.5l-74 55q40 82 63 201t23 245q0 134 -23.5 249.5t-62.5 196.5z" />
    <glyph glyph-name="asterisk" unicode="*" horiz-adv-x="432" 
d="M253 754v-95l81 48l35 -59l-85 -50l85 -50l-35 -58l-81 50v-96h-69v97l-87 -49l-34 57l85 49l-84 50l31 57l89 -49v98h69z" />
    <glyph glyph-name="plus" unicode="+" 
d="M332 512v-213h213v-86h-213v-213h-86v213h-213v86h213v213h86z" />
    <glyph glyph-name="comma" unicode="," horiz-adv-x="289" 
d="M164 119l78 -31l-133 -267l-55 23z" />
    <glyph glyph-name="hyphen" unicode="-" horiz-adv-x="332" 
d="M276 358v-75h-219v75h219z" />
    <glyph glyph-name="period" unicode="." horiz-adv-x="289" 
d="M186 1q-17 -17 -41 -17t-41 17t-17 41q0 23 17 40.5t41 17.5t41 -17.5t17 -40.5q0 -24 -17 -41z" />
    <glyph glyph-name="slash" unicode="/" horiz-adv-x="551" 
d="M520 836l-417 -962l-71 32l416 962z" />
    <glyph glyph-name="zero" unicode="0" 
d="M26 377q0 86 27.5 179.5t88 153.5t147.5 60q78 0 136.5 -49.5t92.5 -144.5t34 -199q0 -98 -33 -194t-93 -147.5t-137 -51.5q-86 0 -146 60t-88.5 151.5t-28.5 181.5zM288 690q-77 0 -124.5 -93t-47.5 -219q0 -130 48 -220t125 -90q81 0 127 95t46 215q0 66 -19.5 144
t-59.5 123t-95 45z" />
    <glyph glyph-name="one" unicode="1" 
d="M344 754v-754h-90v668h-131l52 86h169z" />
    <glyph glyph-name="two" unicode="2" 
d="M476 389l-248 -303h304v-86h-487l328 402q32 39 50.5 72t18.5 66q0 58 -44.5 101t-103.5 43q-54 0 -96.5 -39t-48.5 -99h-94q14 107 77.5 165.5t161.5 58.5t168 -65t70 -161q0 -43 -15.5 -84t-40.5 -71z" />
    <glyph glyph-name="three" unicode="3" 
d="M417 397q54 -26 80.5 -75.5t26.5 -111.5q0 -99 -66.5 -162.5t-174.5 -63.5q-95 0 -160.5 57.5t-69.5 144.5h91q7 -53 48.5 -86.5t97.5 -33.5q62 0 103 42.5t41 105.5q0 67 -40 107t-102 40q-15 -1 -17 -1v78q146 0 148 121q0 54 -36 91.5t-95 37.5q-51 0 -84 -29.5
t-41 -78.5h-93q14 92 70 141t151 49q96 0 157 -57.5t61 -145.5q0 -57 -24 -100t-72 -70z" />
    <glyph glyph-name="four" unicode="4" 
d="M469 786v-594h86v-82h-86v-110h-90v110h-372zM165 192h214v311h-2z" />
    <glyph glyph-name="five" unicode="5" 
d="M528 754v-86h-237l-47 -155q49 3 55 3q101 0 170.5 -77t69.5 -187q0 -75 -36 -136.5t-100.5 -96.5t-142.5 -35q-71 0 -135.5 36t-94.5 96l70 66q17 -46 66 -79t101 -33q74 0 128 54t54 131q0 74 -54.5 126.5t-125.5 52.5q-39 0 -77.5 -17.5t-63.5 -49.5h-18l116 387h302z
" />
    <glyph glyph-name="six" unicode="6" 
d="M447 724l-201 -272l2 -2q18 8 36 13t38 5q59 0 109.5 -33.5t79.5 -87t29 -115.5q0 -67 -33 -124t-91.5 -90.5t-124.5 -33.5q-65 0 -124 34t-93 89t-34 118q0 55 25.5 108t57.5 93l256 344zM450 222q0 66 -49 114t-112 48q-59 0 -109 -48t-50 -109q0 -65 48 -112t112 -47
q63 0 111.5 45.5t48.5 108.5z" />
    <glyph glyph-name="seven" unicode="7" 
d="M590 754l-470 -770l-73 45l390 639h-390v86h543z" />
    <glyph glyph-name="eight" unicode="8" 
d="M406 391q58 -21 88.5 -69.5t30.5 -111.5q0 -99 -67 -162.5t-169 -63.5q-103 0 -169.5 63.5t-66.5 162.5q0 63 30.5 111.5t88.5 69.5q-48 27 -73.5 71.5t-25.5 97.5q0 60 29 108.5t78.5 75t108.5 26.5q91 0 153.5 -59.5t62.5 -150.5q0 -53 -24.5 -97t-74.5 -72zM417 560
q0 51 -38 90.5t-91 39.5q-50 0 -88.5 -38t-38.5 -92q0 -45 41 -86.5t87 -41.5q47 0 87.5 41t40.5 87zM435 210q0 59 -44.5 100.5t-102.5 41.5q-57 0 -101 -42t-44 -100q0 -56 45.5 -99t100.5 -43t100.5 43t45.5 99z" />
    <glyph glyph-name="nine" unicode="9" 
d="M468 328l-255 -344l-68 47l201 271l-2 2q-20 -9 -36.5 -11.5t-36.5 -2.5q-57 0 -108 31.5t-81 85t-30 115.5q0 68 34.5 125.5t92 90t122.5 32.5q63 0 121 -32t94 -88t36 -121q0 -43 -17 -88t-67 -113zM462 528q0 61 -48 109.5t-107 48.5q-65 0 -115 -47t-50 -111
q0 -63 48.5 -110.5t111.5 -47.5q67 0 113.5 45.5t46.5 112.5z" />
    <glyph glyph-name="colon" unicode=":" horiz-adv-x="289" 
d="M186 383q-17 -17 -41 -17t-41 17t-17 41q0 23 17 40.5t41 17.5t41 -17.5t17 -40.5q0 -24 -17 -41zM186 1q-17 -17 -41 -17t-41 17t-17 41q0 23 17 40.5t41 17.5t41 -17.5t17 -40.5q0 -24 -17 -41z" />
    <glyph glyph-name="semicolon" unicode=";" horiz-adv-x="289" 
d="M192 366q-24 0 -41 17t-17 41q0 23 17.5 40.5t40.5 17.5q24 0 41 -17.5t17 -40.5q0 -24 -17 -41t-41 -17zM156 119l78 -31l-133 -267l-55 23z" />
    <glyph glyph-name="less" unicode="&#x3c;" 
d="M545 404l-384 -148l384 -148v-94l-512 207v70l512 207v-94z" />
    <glyph glyph-name="equal" unicode="=" 
d="M545 385v-86h-512v86h512zM545 213v-86h-512v86h512z" />
    <glyph glyph-name="greater" unicode="&#x3e;" 
d="M33 498l512 -207v-70l-512 -207v94l384 148l-384 148v94z" />
    <glyph glyph-name="question" unicode="?" horiz-adv-x="454" 
d="M237 414q-37 -10 -57 -28.5t-20 -45.5q0 -30 20 -51t50 -21t50.5 21t20.5 53v3h91v-4q0 -64 -49 -110.5t-113 -46.5q-67 0 -114 47.5t-47 112.5q0 51 25.5 85t100.5 62q62 19 93.5 42t31.5 63t-25 64.5t-67 24.5q-35 0 -60.5 -25.5t-25.5 -60.5q1 -17 6 -32h-94
q-2 31 -2 42q0 66 54 113.5t125 47.5q74 0 127 -50.5t53 -123.5q0 -50 -23.5 -89t-60.5 -58.5t-90 -34.5zM230 -16q-24 0 -41 17t-17 41q0 23 17 40.5t41 17.5t41 -17.5t17 -40.5q0 -24 -17 -41t-41 -17z" />
    <glyph glyph-name="at" unicode="@" horiz-adv-x="800" 
d="M731.5 291q-33.5 -69 -83 -103t-93.5 -34q-27 0 -41 17t-19 45q-26 -26 -58.5 -44t-77.5 -18q-66 0 -117 54t-51 131q0 99 59.5 168.5t144.5 69.5q38 0 70.5 -16t62.5 -55l14 62h71l-54 -276q-4 -19 -4 -37q0 -13 4.5 -21.5t17.5 -8.5q37 0 72.5 61.5t35.5 130.5
q0 123 -76.5 198t-193.5 75q-82 0 -151 -42.5t-108.5 -113.5t-39.5 -157t42 -158.5t115 -113.5t160 -41q126 0 185 48l75 -60q-79 -41 -135 -54.5t-133 -13.5q-107 0 -197 52t-141 142t-51 199t50 199t139 142t193 52q92 0 172.5 -44.5t127.5 -118t47 -155.5
q0 -92 -33.5 -161zM469 279.5q36 47.5 36 117.5q0 48 -28 75t-77 27q-55 0 -93 -46t-38 -107q0 -49 29.5 -81.5t70.5 -32.5q64 0 100 47.5z" />
    <glyph glyph-name="A" unicode="A" horiz-adv-x="703" 
d="M352 786l360 -786h-101l-86 189h-346l-86 -189h-101zM218 275h268l-134 305z" />
    <glyph glyph-name="B" unicode="B" horiz-adv-x="535" 
d="M162 754q270 0 270 -206q0 -45 -22.5 -86t-58.5 -58v-2q64 -11 107.5 -67t43.5 -124q0 -98 -71.5 -154.5t-187.5 -56.5h-179v754h98zM158 420h27q65 0 99 16.5t47 42t13 67.5q0 35 -10.5 61.5t-44.5 44.5t-103 18h-28v-250zM233 84q85 0 130 33.5t45 99.5q0 64 -51 96
t-148 32h-51v-261h75z" />
    <glyph glyph-name="C" unicode="C" horiz-adv-x="661" 
d="M621 719v-109q-42 36 -94 55t-105 19q-79 0 -148.5 -41t-109.5 -112t-40 -155q0 -83 40.5 -154t108 -111.5t147.5 -40.5q56 0 106.5 20t94.5 58v-111q-46 -26 -96.5 -39.5t-101.5 -13.5q-106 0 -197.5 52.5t-143.5 142t-52 194.5q0 108 53.5 199.5t146 144.5t201.5 53
q51 0 99 -12.5t91 -38.5z" />
    <glyph glyph-name="D" unicode="D" horiz-adv-x="665" 
d="M226 754q89 0 168.5 -26.5t135.5 -76.5t84.5 -116.5t28.5 -153.5q0 -119 -52.5 -205t-149 -131t-222.5 -45h-155v754h162zM158 86h26q184 0 276 76q89 76 89 215q0 142 -91 216.5t-272 74.5h-28v-582z" />
    <glyph glyph-name="E" unicode="E" horiz-adv-x="521" 
d="M477 754v-86h-311v-211h302v-86h-302v-285h311v-86h-405v754h405z" />
    <glyph glyph-name="F" unicode="F" horiz-adv-x="474" 
d="M436 754v-86h-271v-212h262v-86h-262v-370h-94v754h365z" />
    <glyph glyph-name="G" unicode="G" horiz-adv-x="780" 
d="M719 624l-66 -63q-42 56 -105 89.5t-132 33.5q-81 0 -150.5 -40.5t-110 -111.5t-40.5 -154q0 -80 40 -151.5t108 -114t145 -42.5q57 0 114.5 30.5t93.5 82t39 111.5h-195v86h299v-26q0 -109 -46.5 -193.5t-129 -130.5t-181.5 -46q-100 0 -189 53.5t-140.5 144
t-51.5 193.5q0 106 53 198t143.5 144.5t194.5 52.5q88 0 168.5 -38t138.5 -108z" />
    <glyph glyph-name="H" unicode="H" horiz-adv-x="675" 
d="M158 754v-304h359v304h94v-754h-94v362h-359v-362h-94v754h94z" />
    <glyph glyph-name="I" unicode="I" horiz-adv-x="232" 
d="M163 754v-754h-94v754h94z" />
    <glyph glyph-name="J" unicode="J" horiz-adv-x="362" 
d="M303 754v-485q0 -149 -50.5 -217t-153.5 -68q-33 0 -61.5 8t-56.5 25l47 80q33 -25 75 -25q54 0 80 42t26 152v488h94z" />
    <glyph glyph-name="K" unicode="K" horiz-adv-x="600" 
d="M166 754v-327l320 327h123l-339 -339l345 -415h-127l-284 351l-38 -36v-315h-94v754h94z" />
    <glyph glyph-name="L" unicode="L" horiz-adv-x="385" 
d="M166 754v-668h229v-86h-323v754h94z" />
    <glyph glyph-name="M" unicode="M" horiz-adv-x="851" 
d="M167 786l259 -594l259 594l154 -786h-97l-88 498h-2l-226 -514l-226 514h-2l-88 -498h-97z" />
    <glyph glyph-name="N" unicode="N" horiz-adv-x="785" 
d="M63 790l566 -593v557h94v-785l-566 593v-562h-94v790z" />
    <glyph glyph-name="O" unicode="O" horiz-adv-x="828" 
d="M414 -16q-108 0 -199 52t-143.5 142.5t-52.5 198.5q0 104 53.5 195t145 144.5t196.5 53.5q104 0 196.5 -53t145.5 -144t53 -196q0 -108 -52.5 -198.5t-143 -142.5t-199.5 -52zM715 377q0 84 -40 154.5t-109 110.5t-153 40q-82 0 -151.5 -40.5t-109 -110t-39.5 -154.5
q0 -84 42.5 -155.5t111.5 -110.5t147 -39t147 39t111.5 109.5t42.5 156.5z" />
    <glyph glyph-name="P" unicode="P" horiz-adv-x="495" 
d="M185 754q153 0 226 -51t73 -167q0 -107 -70 -163.5t-201 -56.5h-47v-316h-94v754h113zM166 400h29q109 0 155 34.5t46 103.5q0 65 -46 98.5t-163 33.5h-21v-270z" />
    <glyph glyph-name="Q" unicode="Q" horiz-adv-x="828" 
d="M691 99l117 -115h-114l-65 67q-47 -32 -102.5 -49.5t-112.5 -17.5q-108 0 -199.5 52t-143.5 143t-52 198q0 105 54 196t145 144t196 53q104 0 196.5 -53.5t145.5 -143.5t53 -196q0 -79 -30 -151t-88 -127zM564 115l-173 169h117l119 -118q42 38 65 96t23 115
q0 84 -40 154.5t-109 110.5t-153 40q-83 0 -152 -39.5t-108.5 -110t-39.5 -155.5q0 -82 40.5 -152t110 -111.5t150.5 -41.5q39 0 78 11.5t72 31.5z" />
    <glyph glyph-name="R" unicode="R" horiz-adv-x="543" 
d="M199 754q98 0 154.5 -20.5t93.5 -73t37 -121.5q0 -84 -50.5 -143t-130.5 -68l238 -328h-114l-222 319h-39v-319h-94v754h127zM166 397h29q108 0 154.5 34.5t46.5 103.5q0 70 -50.5 102.5t-155.5 32.5h-24v-273z" />
    <glyph glyph-name="S" unicode="S" horiz-adv-x="537" 
d="M482 656l-75 -45q-21 35 -49.5 53t-71.5 18q-50 0 -88 -31t-38 -76q0 -36 26.5 -62.5t77.5 -45.5l55 -21q95 -36 141 -90t46 -137q0 -103 -70.5 -169t-170.5 -66q-88 0 -153.5 58t-79.5 153l95 20q0 -61 42 -102t104 -41q58 0 98.5 42t40.5 105q0 49 -29.5 81t-100.5 62
l-52 22q-90 38 -127 84t-37 107q0 84 64.5 139.5t157.5 55.5q63 0 113 -29.5t81 -84.5z" />
    <glyph glyph-name="T" unicode="T" horiz-adv-x="456" 
d="M454 754v-86h-179v-668h-94v668h-179v86h452z" />
    <glyph glyph-name="U" unicode="U" horiz-adv-x="669" 
d="M153 754v-450q0 -115 45.5 -173.5t136.5 -58.5q92 0 137 59.5t45 172.5v450h94v-481q0 -83 -35 -149.5t-97.5 -103t-143.5 -36.5q-83 0 -144.5 36.5t-96.5 104t-35 147.5v482h94z" />
    <glyph glyph-name="V" unicode="V" horiz-adv-x="640" 
d="M96 754l225 -558l224 558h103l-327 -794l-328 794h103z" />
    <glyph glyph-name="W" unicode="W" horiz-adv-x="1027" 
d="M514 770l213 -556l211 540h102l-313 -784l-213 553l-213 -553l-313 784h102l211 -540z" />
    <glyph glyph-name="X" unicode="X" horiz-adv-x="574" 
d="M136 754l154 -275l164 275h107l-217 -359l229 -395h-105l-178 309l-185 -309h-105l237 395l-208 359h107z" />
    <glyph glyph-name="Y" unicode="Y" horiz-adv-x="573" 
d="M102 754l185 -322l185 322h108l-246 -426v-328h-94v328l-246 426h108z" />
    <glyph glyph-name="Z" unicode="Z" horiz-adv-x="552" 
d="M544 754l-382 -668h382v-86h-535l382 668h-328v86h481z" />
    <glyph glyph-name="bracketleft" unicode="[" horiz-adv-x="311" 
d="M251 809v-84h-98v-834h98v-84h-190v1002h190z" />
    <glyph glyph-name="backslash" unicode="\" horiz-adv-x="551" 
d="M115 868l404 -868h-84l-404 868h84z" />
    <glyph glyph-name="bracketright" unicode="]" horiz-adv-x="311" 
d="M250 809v-1002h-190v84h98v834h-98v84h190z" />
    <glyph glyph-name="asciicircum" unicode="^" 
d="M345 754l200 -446h-94l-162 362l-163 -362h-93l200 446h112z" />
    <glyph glyph-name="underscore" unicode="_" horiz-adv-x="500" 
d="M500 -75v-50h-500v50h500z" />
    <glyph glyph-name="grave" unicode="`" horiz-adv-x="360" 
d="M159 734l125 -166l-44 -27l-164 149z" />
    <glyph glyph-name="a" unicode="a" horiz-adv-x="556" 
d="M409 390h2v78h90v-468h-90v73h-2q-27 -40 -67.5 -64.5t-91.5 -24.5q-100 0 -162 72.5t-62 180.5q0 69 30 126t80 88t111 31q51 0 92.5 -25t69.5 -67zM416 234q0 76 -43 122t-110 46q-63 0 -105 -49t-42 -119q0 -72 42 -121t106 -49q68 0 110 47.5t42 122.5z" />
    <glyph glyph-name="b" unicode="b" horiz-adv-x="556" 
d="M145 868v-478h2q28 42 69.5 67t93.5 25q60 0 111 -32t80 -88t29 -125q0 -110 -62.5 -181.5t-161.5 -71.5q-51 0 -91.5 24.5t-67.5 64.5h-2v-73h-90v868h90zM440 234q0 77 -43.5 122.5t-109.5 45.5q-63 0 -105 -48.5t-42 -119.5q0 -70 41 -120t107 -50q69 0 110.5 47.5
t41.5 122.5z" />
    <glyph glyph-name="c" unicode="c" horiz-adv-x="441" 
d="M406 451v-116q-54 63 -134 63q-64 0 -110 -49.5t-46 -114.5q0 -74 46 -120t116 -46q39 0 70 16t58 46v-115q-32 -17 -63 -24t-66 -7q-104 0 -177.5 71.5t-73.5 174.5q0 71 34 129t93 90.5t129 32.5q32 0 64.5 -7.5t59.5 -23.5z" />
    <glyph glyph-name="d" unicode="d" horiz-adv-x="556" 
d="M501 868v-868h-90v73h-2q-27 -40 -67.5 -64.5t-91.5 -24.5q-98 0 -161 71.5t-63 181.5q0 101 62.5 173t157.5 72q53 0 94 -25t69 -67h2v478h90zM416 234q0 76 -43.5 122t-109.5 46q-63 0 -105 -49t-42 -119q0 -74 41.5 -122t106.5 -48q68 0 110 47.5t42 122.5z" />
    <glyph glyph-name="e" unicode="e" horiz-adv-x="488" 
d="M473 227v-8h-357q2 -68 42.5 -111.5t98.5 -43.5q52 0 83 24.5t57 66.5l76 -43q-33 -61 -90.5 -94.5t-126.5 -33.5q-101 0 -165.5 68t-64.5 178q0 115 61 183.5t167 68.5q102 0 160.5 -66.5t58.5 -188.5zM383 287q-8 54 -41.5 85.5t-88.5 31.5q-51 0 -87.5 -33.5
t-44.5 -83.5h262z" />
    <glyph glyph-name="f" unicode="f" horiz-adv-x="275" 
d="M294 868v-91l-30 13q-16 6 -30 6q-32 0 -48 -27.5t-16 -92.5v-208h124v-84h-124v-384h-90v384h-41v84h41v232q0 85 37 132.5t114 47.5q33 0 63 -12z" />
    <glyph glyph-name="g" unicode="g" horiz-adv-x="555" 
d="M408 388h2v80h90v-465q0 -137 -54.5 -204t-173.5 -67q-101 0 -162.5 58t-63.5 154h90q0 -61 38.5 -96.5t101.5 -35.5q72 0 103 41t31 126v94h-2q-27 -40 -67.5 -64.5t-91.5 -24.5q-98 0 -161 70.5t-63 182.5q0 103 63.5 174t156.5 71q54 0 95.5 -26t67.5 -68zM415 234
q0 76 -43.5 122t-109.5 46q-63 0 -105 -49t-42 -119q0 -73 42 -121.5t106 -48.5q68 0 110 47.5t42 122.5z" />
    <glyph glyph-name="h" unicode="h" horiz-adv-x="523" 
d="M152 868v-463h2q21 38 59.5 57.5t81.5 19.5q84 0 125 -48.5t41 -149.5v-284h-90v273q0 75 -24 102t-79 27q-47 0 -71.5 -20.5t-34.5 -53t-10 -110.5v-218h-90v868h90z" />
    <glyph glyph-name="i" unicode="i" horiz-adv-x="254" 
d="M171 638.5q-18 -17.5 -44 -17.5t-44 17.5t-18 43.5t18 44.5t44 18.5t44 -18.5t18 -44.5t-18 -43.5zM172 468v-468h-90v468h90z" />
    <glyph glyph-name="j" unicode="j" horiz-adv-x="254" 
d="M171 639q-18 -18 -44 -18t-44 17.5t-18 43.5t18 44.5t44 18.5t44 -18.5t18 -44.5q0 -25 -18 -43zM172 468v-736h-90v736h90z" />
    <glyph glyph-name="k" unicode="k" horiz-adv-x="462" 
d="M158 868v-576l176 176h119l-200 -194l220 -274h-117l-167 213l-31 -31v-182h-90v868h90z" />
    <glyph glyph-name="l" unicode="l" horiz-adv-x="222" 
d="M156 868v-868h-90v868h90z" />
    <glyph glyph-name="m" unicode="m" horiz-adv-x="767" 
d="M410 399q22 38 61 60.5t83 22.5q77 0 116 -50.5t39 -146.5v-285h-90v269q0 68 -21 100.5t-66 32.5q-51 0 -77 -38.5t-26 -128.5v-235h-90v253q0 79 -20.5 114t-65.5 35q-51 0 -77.5 -38.5t-26.5 -128.5v-235h-90v468h90v-59h2q20 31 53.5 52t70.5 21q45 0 78.5 -22
t56.5 -61z" />
    <glyph glyph-name="n" unicode="n" horiz-adv-x="523" 
d="M461 284v-284h-90v273q0 70 -22 99.5t-81 29.5q-61 0 -88.5 -38t-27.5 -134v-230h-90v468h90v-63h2q22 38 60 57.5t81 19.5q85 0 125.5 -49.5t40.5 -148.5z" />
    <glyph glyph-name="o" unicode="o" horiz-adv-x="540" 
d="M270 -16q-68 0 -125 32t-91 90t-34 127t32.5 125t90 90t127.5 34q71 0 129.5 -35t89.5 -91t31 -123q0 -65 -30.5 -122t-89 -92t-130.5 -35zM430 233q0 68 -47.5 115.5t-113.5 47.5q-62 0 -110.5 -47.5t-48.5 -115.5q0 -65 47.5 -114t112.5 -49q66 0 113 48.5t47 114.5z
" />
    <glyph glyph-name="p" unicode="p" horiz-adv-x="556" 
d="M306 -16q-51 0 -91.5 24.5t-67.5 64.5h-2v-341h-90v736h90v-78h2q28 42 69.5 67t93.5 25q59 0 110.5 -31.5t80.5 -88t29 -125.5q0 -72 -26.5 -128t-77.5 -90.5t-120 -34.5zM440 234q0 76 -43.5 122t-109.5 46q-63 0 -105 -48.5t-42 -119.5q0 -74 41.5 -122t106.5 -48
q68 0 110 47.5t42 122.5z" />
    <glyph glyph-name="q" unicode="q" horiz-adv-x="556" 
d="M409 390h2v78h90v-736h-90v341h-2q-26 -40 -67 -64.5t-92 -24.5q-98 0 -161 71.5t-63 181.5q0 103 63.5 174t156.5 71q52 0 94 -25t69 -67zM416 234q0 76 -43.5 122t-109.5 46q-63 0 -105 -49t-42 -119q0 -74 41.5 -122t106.5 -48q68 0 110 47.5t42 122.5z" />
    <glyph glyph-name="r" unicode="r" horiz-adv-x="351" 
d="M363 459l-41 -82q-12 11 -26.5 15t-28.5 4q-56 0 -82.5 -40t-26.5 -121v-235h-90v468h90v-76h3q17 42 50.5 66t77.5 24q18 0 37.5 -6t36.5 -17z" />
    <glyph glyph-name="s" unicode="s" horiz-adv-x="384" 
d="M323 400l-73 -39q-8 17 -23.5 29t-36.5 12q-19 0 -34 -13.5t-15 -32.5q0 -21 20 -37.5t62 -34.5l27 -12q55 -24 81.5 -55t26.5 -78q0 -65 -47 -110t-114 -45q-54 0 -99 29t-63 76l77 35q14 -26 33.5 -43t51.5 -17q29 0 50 18t21 48q0 20 -10.5 32t-41.5 29l-69 37
q-45 23 -67.5 49t-22.5 69q0 55 41 95.5t97 40.5q43 0 76 -22t52 -60z" />
    <glyph glyph-name="t" unicode="t" horiz-adv-x="240" 
d="M165 647v-179h88v-84h-88v-384h-90v384h-49v84h49v179h90z" />
    <glyph glyph-name="u" unicode="u" horiz-adv-x="512" 
d="M148 468v-263q0 -72 27.5 -104.5t80.5 -32.5q59 0 83.5 36t24.5 101v263h90v-273q0 -101 -51 -156t-147 -55q-99 0 -148.5 57t-49.5 155v272h90z" />
    <glyph glyph-name="v" unicode="v" horiz-adv-x="445" 
d="M88 468l134 -292l135 292h101l-236 -484l-235 484h101z" />
    <glyph glyph-name="w" unicode="w" horiz-adv-x="718" 
d="M360 494l137 -324l136 298h102l-238 -484l-137 313l-138 -313l-238 484h102l136 -298z" />
    <glyph glyph-name="x" unicode="x" horiz-adv-x="489" 
d="M133 468l111 -151l121 151h109l-172 -214l201 -254h-105l-154 190l-149 -190h-109l209 254l-168 214h106z" />
    <glyph glyph-name="y" unicode="y" horiz-adv-x="484" 
d="M92 468l158 -297l147 297h101l-379 -736h-102l184 348l-214 388h105z" />
    <glyph glyph-name="z" unicode="z" horiz-adv-x="495" 
d="M494 468l-317 -384h304v-84h-479l317 384h-263v84h438z" />
    <glyph glyph-name="braceleft" unicode="{" horiz-adv-x="334" 
d="M286 809v-84h-40q-17 0 -24 -12.5t-7 -37.5v-200q0 -54 -20.5 -99t-55.5 -69q35 -23 55.5 -68t20.5 -99v-200q0 -25 7 -37.5t24 -12.5h40v-84h-78q-28 0 -56.5 40.5t-28.5 88.5v189q0 51 -18 90.5t-57 56.5v73q39 17 57 56.5t18 90.5v189q0 32 14.5 63.5t34 48.5t35.5 17
h79z" />
    <glyph glyph-name="bar" unicode="|" horiz-adv-x="570" 
d="M328 786v-1000h-86v1000h86z" />
    <glyph glyph-name="braceright" unicode="}" horiz-adv-x="334" 
d="M124 809q30 0 58.5 -40.5t28.5 -87.5v-190q0 -51 18 -90.5t57 -56.5v-73q-39 -17 -57 -56.5t-18 -90.5v-189q0 -47 -28.5 -88t-57.5 -41h-77v84h40q16 0 23 10.5t8 26.5v213q0 54 20.5 99t55.5 68q-35 24 -55.5 69t-20.5 99v215h-1q0 16 -7.5 25.5t-22.5 9.5h-40v84h76z
" />
    <glyph glyph-name="asciitilde" unicode="~" 
d="M308 299l46 -35q20 -16 38 -16q23 0 40.5 18.5t45.5 67.5l67 -50q-32 -60 -71 -91t-81 -31q-27 0 -57 16t-58 35l-51 35q-24 16 -39 16q-26 0 -47 -21.5t-45 -60.5l-63 45q41 63 76 93t77 30q36 0 66.5 -16t55.5 -35z" />
    <glyph glyph-name="uni00A0" unicode="&#xa0;" horiz-adv-x="289" 
 />
    <glyph glyph-name="exclamdown" unicode="&#xa1;" horiz-adv-x="321" 
d="M202 409q-17 -17 -41 -17t-41 17t-17 41q0 23 17 40.5t41 17.5t41 -17.5t17 -40.5q0 -24 -17 -41zM206 323v-581h-90v581h90z" />
    <glyph glyph-name="cent" unicode="&#xa2;" 
d="M308 704h48v-76q31 -1 63 -8.5t59 -22.5v-115h-2q-21 28 -52.5 45t-67.5 18v-328q38 5 67 19.5t55 42.5v-117q-18 -10 -51.5 -19t-70.5 -10v-85h-48v89q-93 15 -150.5 83t-57.5 157q0 95 58.5 164.5t149.5 84.5v78zM308 220v319q-49 -7 -84.5 -55.5t-35.5 -102.5
q0 -56 33 -102.5t87 -58.5z" />
    <glyph glyph-name="sterling" unicode="&#xa3;" 
d="M557 536l-90 -34v24q0 67 -42 111.5t-104 44.5q-58 0 -109.5 -47t-51.5 -104q0 -34 15 -70t35 -66l21 -36h148v-58h-124q14 -50 14 -86t-14 -86l74 -26l17 -7q20 -9 41.5 -15.5t35.5 -6.5q21 0 39.5 14.5t43.5 59.5l75 -46q-21 -51 -61 -84.5t-95 -33.5
q-49 0 -129.5 32.5t-117.5 32.5q-35 0 -55.5 -17.5t-32.5 -47.5l-79 40q34 59 68.5 84.5t85.5 28.5q8 25 11 46.5t3 40.5q0 40 -22 77h-129v58h100q-22 40 -40 89t-18 91q0 63 35 116t92.5 84t119.5 31q103 0 168.5 -63t71.5 -171z" />
    <glyph glyph-name="currency" unicode="&#xa4;" 
d="M437 502l46 44l60 -60l-41 -44q20 -31 31 -65t11 -77t-11 -77t-31 -65l41 -44l-60 -60l-46 44q-31 -22 -65 -35t-83 -13t-83 13t-65 35l-46 -44l-60 60l41 44q-20 32 -31 65.5t-11 76.5q0 80 42 142l-41 44l60 60l46 -44q27 20 61.5 34t86.5 14q48 0 83.5 -13t64.5 -35z
M414 422.5q-50 47.5 -126 47.5q-73 0 -123.5 -47t-50.5 -118q0 -75 53 -125t122 -50q71 0 123 50t52 120q0 75 -50 122.5z" />
    <glyph glyph-name="yen" unicode="&#xa5;" 
d="M104 754l185 -322l185 322h108l-158 -274h148v-58h-181l-55 -94v-10h236v-58h-236v-260h-94v260h-236v58h236v10l-54 94h-182v58h148l-158 274h108z" />
    <glyph glyph-name="brokenbar" unicode="&#xa6;" horiz-adv-x="570" 
d="M328 661v-250h-86v250h86zM328 161v-250h-86v250h86z" />
    <glyph glyph-name="section" unicode="&#xa7;" 
d="M482 700h-87q-2 38 -34.5 63.5t-77.5 25.5q-42 0 -71.5 -28t-29.5 -72q0 -31 19 -54.5t66 -46.5l155 -78q56 -29 86 -61.5t30 -76.5q0 -51 -24.5 -95.5t-64.5 -73.5q53 -52 53 -122q0 -85 -62.5 -139t-150.5 -54q-97 0 -161.5 57.5t-64.5 160.5v12h89v-5q0 -61 38.5 -102
t97.5 -41q53 0 88.5 34t35.5 79q0 38 -26.5 61.5t-75.5 47.5l-141 69q-58 28 -80.5 47t-35.5 45t-13 65q0 55 27 92.5t69 69.5q-21 24 -32.5 51.5t-11.5 59.5q0 73 57.5 125t133.5 52q83 0 138 -47t61 -121zM214 335l175 -87q26 17 43 45.5t17 59.5t-18 49t-54 37l-188 95
q-27 -18 -43.5 -45.5t-16.5 -59.5q0 -34 21.5 -54t63.5 -40z" />
    <glyph glyph-name="dieresis" unicode="&#xa8;" horiz-adv-x="470" 
d="M172.5 590.5q-17.5 -17.5 -42.5 -17.5q-24 0 -42.5 17.5t-18.5 43.5q0 25 17.5 42.5t43.5 17.5q25 0 42.5 -17.5t17.5 -42.5q0 -26 -17.5 -43.5zM383.5 590.5q-17.5 -17.5 -42.5 -17.5q-27 0 -44 19.5t-17 41.5q0 25 17.5 42.5t43.5 17.5q25 0 42.5 -17.5t17.5 -42.5
q0 -26 -17.5 -43.5z" />
    <glyph glyph-name="copyright" unicode="&#xa9;" horiz-adv-x="800" 
d="M741.5 180q-52.5 -91 -143.5 -143.5t-198 -52.5t-198 52.5t-143.5 143.5t-52.5 197t52.5 197.5t143.5 143.5t198 52t198 -52.5t143.5 -143t52.5 -197.5q0 -106 -52.5 -197zM565 92.5q77 44.5 121 120.5t44 164q0 91 -45 167t-121.5 119t-164.5 43q-89 0 -165 -44.5
t-120 -120t-44 -164.5q0 -88 44 -163.5t120.5 -120.5t165.5 -45q88 0 165 44.5zM600 458h-61q-11 47 -46 66t-79 19q-70 0 -111.5 -45t-41.5 -116q0 -75 43 -119.5t112 -44.5q47 0 79 20.5t44 68.5h61q-8 -67 -60 -110t-124 -43q-95 0 -157 63.5t-62 162.5q0 101 61 164
t157 63q70 0 120.5 -40t64.5 -109z" />
    <glyph glyph-name="ordfeminine" unicode="&#xaa;" horiz-adv-x="334" 
d="M262 715h1v46h59v-280h-59v43h-2q-17 -23 -43.5 -38t-59.5 -15q-62 0 -104 41.5t-42 110.5q0 62 41.5 104.5t102.5 42.5q34 0 60.5 -15t45.5 -40zM239.5 547.5q26.5 28.5 26.5 73.5q0 43 -26.5 72t-73.5 29q-39 0 -67 -28.5t-28 -72.5q0 -43 26 -72.5t70 -29.5
q46 0 72.5 28.5z" />
    <glyph glyph-name="guillemotleft" unicode="&#xab;" horiz-adv-x="523" 
d="M268 519l-149 -199l149 -191l-56 -41l-182 232l182 240zM460 519l-149 -199l149 -191l-56 -41l-182 232l182 240z" />
    <glyph glyph-name="logicalnot" unicode="&#xac;" 
d="M459 299h-426v86h512v-270h-86v184z" />
    <glyph glyph-name="uni00AD" unicode="&#xad;" horiz-adv-x="332" 
d="M276 358v-75h-219v75h219z" />
    <glyph glyph-name="registered" unicode="&#xae;" horiz-adv-x="800" 
d="M741.5 180q-52.5 -91 -143.5 -143.5t-198 -52.5t-198 52.5t-143.5 143.5t-52.5 197t52.5 197.5t143.5 143.5t198 52t198 -52.5t143.5 -143t52.5 -197.5q0 -106 -52.5 -197zM565 92.5q77 44.5 121 120.5t44 164q0 90 -44 165.5t-121 119.5t-166 44t-165 -44.5t-120 -120
t-44 -164.5q0 -88 44 -163.5t120.5 -120.5t165.5 -45q88 0 165 44.5zM438 595q73 0 110.5 -28.5t37.5 -88.5q0 -59 -31.5 -88.5t-86.5 -32.5l112 -204h-73l-113 204h-82v-204h-64v442h190zM395 421q16 0 39 -1q47 0 67.5 13.5t20.5 37.5q0 32 -21 46t-74 14h-115v-110h83z
" />
    <glyph glyph-name="macron" unicode="&#xaf;" horiz-adv-x="500" 
d="M431 694v-68h-361v68h361z" />
    <glyph glyph-name="degree" unicode="&#xb0;" horiz-adv-x="400" 
d="M94.5 514.5q-44.5 44.5 -44.5 105.5q0 60 44 105t106 45q61 0 105.5 -44.5t44.5 -105.5q0 -62 -45 -106t-105 -44q-61 0 -105.5 44.5zM128.5 548.5q28.5 -28.5 71.5 -28.5q42 0 71 28.5t29 71.5q0 41 -30 70.5t-71 29.5q-42 0 -70.5 -29t-28.5 -71q0 -43 28.5 -71.5z" />
    <glyph glyph-name="plusminus" unicode="&#xb1;" 
d="M332 562v-173h213v-86h-213v-173h-86v173h-213v86h213v173h86zM545 86v-86h-512v86h512z" />
    <glyph glyph-name="uni00B2" unicode="&#xb2;" horiz-adv-x="346" 
d="M299 535l-155 -175h188v-58h-317l218 246q35 40 35 78q0 33 -29 56.5t-62 23.5q-37 0 -61 -21t-27 -55h-67q7 60 48 97t107 37q61 0 108 -38.5t47 -97.5q0 -25 -8.5 -50.5t-24.5 -42.5z" />
    <glyph glyph-name="uni00B3" unicode="&#xb3;" horiz-adv-x="346" 
d="M255 546q36 -16 54.5 -45.5t18.5 -66.5q0 -61 -45 -98.5t-115 -37.5q-60 0 -103 35t-46 87h64q5 -33 28 -48.5t62 -15.5q35 0 63 21t28 59q0 37 -27.5 59.5t-67.5 22.5h-6v58q43 0 68.5 17t25.5 50q0 32 -25 50.5t-58 18.5q-30 0 -52 -13.5t-23 -42.5h-67q9 54 45.5 84
t98.5 30q61 0 103 -34.5t42 -87.5q0 -67 -66 -102z" />
    <glyph glyph-name="acute" unicode="&#xb4;" horiz-adv-x="360" 
d="M284 690l-164 -149l-44 27l125 166z" />
    <glyph glyph-name="mu" unicode="&#xb5;" horiz-adv-x="512" 
d="M148 468v-259q0 -73 27 -107t81 -34q55 0 81.5 33.5t26.5 107.5v259h90v-269q0 -103 -50 -159t-148 -56q-30 0 -59 13.5t-49 30.5v-296h-90v736h90z" />
    <glyph glyph-name="paragraph" unicode="&#xb6;" 
d="M538 754v-84h-61v-823h-84v823h-62v-823h-84v436q-63 0 -112 32.5t-72 87.5t-23 111q0 57 28 113t78 91.5t108 35.5h284z" />
    <glyph glyph-name="periodcentered" unicode="&#xb7;" horiz-adv-x="289" 
d="M186 215q-17 -17 -41 -17t-41 17t-17 41q0 23 17 40.5t41 17.5t41 -17.5t17 -40.5q0 -24 -17 -41z" />
    <glyph glyph-name="cedilla" unicode="&#xb8;" horiz-adv-x="330" 
d="M173 -17l71 -29l-105 -135l-53 27zM67 -16z" />
    <glyph glyph-name="uni00B9" unicode="&#xb9;" horiz-adv-x="346" 
d="M215 754v-452h-64v394h-86l34 58h116z" />
    <glyph glyph-name="ordmasculine" unicode="&#xba;" horiz-adv-x="324" 
d="M279 515.5q-46 -44.5 -117 -44.5q-67 0 -114.5 42.5t-47.5 106.5t47.5 107t114.5 43q70 0 116.5 -43.5t46.5 -106.5q0 -60 -46 -104.5zM235.5 551.5q30.5 28.5 30.5 68.5q0 42 -31 70t-74 28q-41 0 -71.5 -28.5t-30.5 -69.5q0 -40 30.5 -68.5t72.5 -28.5q43 0 73.5 28.5z
" />
    <glyph glyph-name="guillemotright" unicode="&#xbb;" horiz-adv-x="523" 
d="M119 560l182 -240l-182 -232l-56 41l149 191l-149 199zM311 560l182 -240l-182 -232l-56 41l149 191l-149 199z" />
    <glyph glyph-name="onequarter" unicode="&#xbc;" horiz-adv-x="867" 
d="M778 473v-349h49v-58h-49v-66h-64v66h-243zM588 124h126v164h-3zM190 754v-452h-64v394h-86l34 58h116zM631 770l51 -26l-440 -760l-51 28z" />
    <glyph glyph-name="onehalf" unicode="&#xbd;" horiz-adv-x="867" 
d="M190 754v-452h-64v394h-86l34 58h116zM579 770l51 -26l-440 -760l-51 28zM794 233l-155 -175h188v-58h-317l218 246q35 40 35 78q0 33 -29 56.5t-62 23.5q-37 0 -61 -21t-27 -55h-67q7 60 48 97t107 37q61 0 108 -38.5t47 -97.5q0 -25 -8.5 -50.5t-24.5 -42.5z" />
    <glyph glyph-name="threequarters" unicode="&#xbe;" horiz-adv-x="867" 
d="M778 473v-349h49v-58h-49v-66h-64v66h-243zM588 124h126v164h-3zM276 546q36 -16 54.5 -45.5t18.5 -66.5q0 -61 -45 -98.5t-115 -37.5q-60 0 -103 35t-46 87h64q6 -34 29 -49t61 -15q36 0 63.5 21.5t27.5 58.5t-27.5 59.5t-67.5 22.5h-6v58q43 0 68.5 17t25.5 50
q0 32 -25 50.5t-58 18.5q-30 0 -52.5 -14t-22.5 -42h-67q9 54 46 84t98 30t103 -34t42 -88q0 -67 -66 -102zM687 770l51 -26l-440 -760l-51 28z" />
    <glyph glyph-name="questiondown" unicode="&#xbf;" horiz-adv-x="453" 
d="M218 88q34 10 54.5 27t20.5 47t-20 51t-50 21t-50.5 -21t-20.5 -53v-3h-91v4q0 63 49.5 110t112.5 47q67 0 114 -47t47 -113q0 -61 -33.5 -94.5t-91.5 -52.5q-64 -20 -95 -42.5t-31 -62.5t25 -64.5t67 -24.5q35 0 60.5 25.5t25.5 60.5q0 11 -6 32h94q2 -24 2 -42
q0 -66 -53.5 -113.5t-125.5 -47.5q-76 0 -128 51t-52 126q0 49 25 89t63.5 58.5t87.5 31.5zM223 508q24 0 41 -17t17 -41q0 -23 -17 -40.5t-41 -17.5t-41 17.5t-17 40.5q0 24 17 41t41 17z" />
    <glyph glyph-name="Agrave" unicode="&#xc0;" horiz-adv-x="703" 
d="M352 786l360 -786h-101l-86 189h-346l-86 -189h-101zM218 275h268l-134 305zM291 995l125 -166l-44 -27l-164 149z" />
    <glyph glyph-name="Aacute" unicode="&#xc1;" horiz-adv-x="703" 
d="M352 786l360 -786h-101l-86 189h-346l-86 -189h-101zM218 275h268l-134 305zM496 951l-164 -149l-44 27l125 166z" />
    <glyph glyph-name="Acircumflex" unicode="&#xc2;" horiz-adv-x="703" 
d="M352 786l360 -786h-101l-86 189h-346l-86 -189h-101zM218 275h268l-134 305zM351 995l161 -145l-59 -46l-102 96l-101 -96l-58 46z" />
    <glyph glyph-name="Atilde" unicode="&#xc3;" horiz-adv-x="703" 
d="M352 786l360 -786h-101l-86 189h-346l-86 -189h-101zM218 275h268l-134 305zM433 902q22 0 37 14.5t27 33.5l47 -39q-17 -35 -46.5 -58.5t-71.5 -23.5q-32 0 -82.5 25.5t-78.5 25.5q-17 0 -33 -15t-24 -31l-47 40q27 44 53 62.5t58 18.5q42 0 89 -26.5t72 -26.5z" />
    <glyph glyph-name="Adieresis" unicode="&#xc4;" horiz-adv-x="703" 
d="M352 786l360 -786h-101l-86 189h-346l-86 -189h-101zM218 275h268l-134 305zM289.5 851.5q-17.5 -17.5 -42.5 -17.5q-26 0 -43.5 17.5t-17.5 43.5q0 25 17.5 42.5t43.5 17.5q25 0 42.5 -17.5t17.5 -42.5q0 -26 -17.5 -43.5zM500.5 851.5q-17.5 -17.5 -42.5 -17.5
q-26 0 -43.5 17.5t-17.5 43.5q0 25 17.5 42.5t43.5 17.5q25 0 42.5 -17.5t17.5 -42.5q0 -26 -17.5 -43.5z" />
    <glyph glyph-name="Aring" unicode="&#xc5;" horiz-adv-x="703" 
d="M352 786l360 -786h-101l-86 189h-346l-86 -189h-101zM218 275h268l-134 305zM416.5 830q-26.5 -26 -64.5 -26t-64 26t-26 64t26 64.5t64 26.5t64.5 -26.5t26.5 -64.5t-26.5 -64zM384.5 862q13.5 13 13.5 32t-13.5 32.5t-32.5 13.5q-18 0 -31.5 -13.5t-13.5 -32.5
t13.5 -32t31.5 -13q19 0 32.5 13z" />
    <glyph glyph-name="AE" unicode="&#xc6;" horiz-adv-x="997" 
d="M692 754l38 -86h-309l91 -211h301l40 -86h-302l121 -285h311l38 -86h-406l-83 189h-343l-86 -189h-103l362 754h330zM229 275h268l-130 292z" />
    <glyph glyph-name="Ccedilla" unicode="&#xc7;" horiz-adv-x="661" 
d="M621 719v-109q-42 36 -94 55t-105 19q-79 0 -148.5 -41t-109.5 -112t-40 -155q0 -83 40.5 -154t108 -111.5t147.5 -40.5q56 0 106.5 20t94.5 58v-111q-46 -26 -96.5 -39.5t-101.5 -13.5q-106 0 -197.5 52.5t-143.5 142t-52 194.5q0 108 53.5 199.5t146 144.5t201.5 53
q51 0 99 -12.5t91 -38.5zM339 -17l71 -29l-105 -135l-53 27zM233 -16z" />
    <glyph glyph-name="Egrave" unicode="&#xc8;" horiz-adv-x="521" 
d="M477 754v-86h-311v-211h302v-86h-302v-285h311v-86h-405v754h405zM220 995l125 -166l-44 -27l-164 149z" />
    <glyph glyph-name="Eacute" unicode="&#xc9;" horiz-adv-x="521" 
d="M477 754v-86h-311v-211h302v-86h-302v-285h311v-86h-405v754h405zM405 951l-164 -149l-44 27l125 166z" />
    <glyph glyph-name="Ecircumflex" unicode="&#xca;" horiz-adv-x="521" 
d="M477 754v-86h-311v-211h302v-86h-302v-285h311v-86h-405v754h405zM272 995l161 -145l-59 -46l-102 96l-101 -96l-58 46z" />
    <glyph glyph-name="Edieresis" unicode="&#xcb;" horiz-adv-x="521" 
d="M477 754v-86h-311v-211h302v-86h-302v-285h311v-86h-405v754h405zM210.5 851.5q-17.5 -17.5 -42.5 -17.5q-26 0 -43.5 17.5t-17.5 43.5q0 25 17.5 42.5t43.5 17.5q25 0 42.5 -17.5t17.5 -42.5q0 -26 -17.5 -43.5zM421.5 851.5q-17.5 -17.5 -42.5 -17.5q-26 0 -43.5 17.5
t-17.5 43.5q0 25 17.5 42.5t43.5 17.5q25 0 42.5 -17.5t17.5 -42.5q0 -26 -17.5 -43.5z" />
    <glyph glyph-name="Igrave" unicode="&#xcc;" horiz-adv-x="232" 
d="M163 754v-754h-94v754h94zM66 995l125 -166l-44 -27l-164 149z" />
    <glyph glyph-name="Iacute" unicode="&#xcd;" horiz-adv-x="232" 
d="M163 754v-754h-94v754h94zM251 951l-164 -149l-44 27l125 166z" />
    <glyph glyph-name="Icircumflex" unicode="&#xce;" horiz-adv-x="232" 
d="M163 754v-754h-94v754h94zM116 995l161 -145l-59 -46l-102 96l-101 -96l-58 46z" />
    <glyph glyph-name="Idieresis" unicode="&#xcf;" horiz-adv-x="232" 
d="M163 754v-754h-94v754h94zM54.5 851.5q-17.5 -17.5 -42.5 -17.5q-26 0 -43.5 17.5t-17.5 43.5q0 25 17.5 42.5t43.5 17.5q25 0 42.5 -17.5t17.5 -42.5q0 -26 -17.5 -43.5zM265.5 851.5q-17.5 -17.5 -42.5 -17.5q-26 0 -43.5 17.5t-17.5 43.5q0 25 17.5 42.5t43.5 17.5
q25 0 42.5 -17.5t17.5 -42.5q0 -26 -17.5 -43.5z" />
    <glyph glyph-name="Eth" unicode="&#xd0;" horiz-adv-x="665" 
d="M226 754q89 0 169 -26.5t136 -76.5t84 -117.5t28 -152.5q0 -116 -51.5 -202.5t-148 -132.5t-220.5 -46h-159v362h-64v80h64v312h162zM158 442h134v-80h-134v-276h24q184 0 277 76q90 76 90 215q0 141 -88 215q-94 76 -276 76h-27v-226z" />
    <glyph glyph-name="Ntilde" unicode="&#xd1;" horiz-adv-x="785" 
d="M63 790l566 -593v557h94v-785l-566 593v-562h-94v790zM474 902q22 0 37 14.5t27 33.5l47 -39q-17 -35 -46.5 -58.5t-71.5 -23.5q-32 0 -82.5 25.5t-78.5 25.5q-17 0 -33 -15t-24 -31l-47 40q27 44 53 62.5t58 18.5q42 0 89 -26.5t72 -26.5z" />
    <glyph glyph-name="Ograve" unicode="&#xd2;" horiz-adv-x="828" 
d="M414 -16q-108 0 -199 52t-143.5 142.5t-52.5 198.5q0 104 53.5 195t145 144.5t196.5 53.5q104 0 196.5 -53t145.5 -144t53 -196q0 -108 -52.5 -198.5t-143 -142.5t-199.5 -52zM715 377q0 84 -40 154.5t-109 110.5t-153 40q-82 0 -151.5 -40.5t-109 -110t-39.5 -154.5
q0 -84 42.5 -155.5t111.5 -110.5t147 -39t147 39t111.5 109.5t42.5 156.5zM363 995l125 -166l-44 -27l-164 149z" />
    <glyph glyph-name="Oacute" unicode="&#xd3;" horiz-adv-x="828" 
d="M414 -16q-108 0 -199 52t-143.5 142.5t-52.5 198.5q0 104 53.5 195t145 144.5t196.5 53.5q104 0 196.5 -53t145.5 -144t53 -196q0 -108 -52.5 -198.5t-143 -142.5t-199.5 -52zM715 377q0 84 -40 154.5t-109 110.5t-153 40q-82 0 -151.5 -40.5t-109 -110t-39.5 -154.5
q0 -84 42.5 -155.5t111.5 -110.5t147 -39t147 39t111.5 109.5t42.5 156.5zM548 951l-164 -149l-44 27l125 166z" />
    <glyph glyph-name="Ocircumflex" unicode="&#xd4;" horiz-adv-x="828" 
d="M414 -16q-108 0 -199 52t-143.5 142.5t-52.5 198.5q0 104 53.5 195t145 144.5t196.5 53.5q104 0 196.5 -53t145.5 -144t53 -196q0 -108 -52.5 -198.5t-143 -142.5t-199.5 -52zM715 377q0 84 -40 154.5t-109 110.5t-153 40q-82 0 -151.5 -40.5t-109 -110t-39.5 -154.5
q0 -84 42.5 -155.5t111.5 -110.5t147 -39t147 39t111.5 109.5t42.5 156.5zM413 995l161 -145l-59 -46l-102 96l-101 -96l-58 46z" />
    <glyph glyph-name="Otilde" unicode="&#xd5;" horiz-adv-x="828" 
d="M414 -16q-108 0 -199 52t-143.5 142.5t-52.5 198.5q0 104 53.5 195t145 144.5t196.5 53.5q104 0 196.5 -53t145.5 -144t53 -196q0 -108 -52.5 -198.5t-143 -142.5t-199.5 -52zM715 377q0 84 -40 154.5t-109 110.5t-153 40q-82 0 -151.5 -40.5t-109 -110t-39.5 -154.5
q0 -84 42.5 -155.5t111.5 -110.5t147 -39t147 39t111.5 109.5t42.5 156.5zM495 902q22 0 37 14.5t27 33.5l47 -39q-17 -35 -46.5 -58.5t-71.5 -23.5q-32 0 -82.5 25.5t-78.5 25.5q-17 0 -33 -15t-24 -31l-47 40q27 44 53 62.5t58 18.5q42 0 89 -26.5t72 -26.5z" />
    <glyph glyph-name="Odieresis" unicode="&#xd6;" horiz-adv-x="828" 
d="M414 -16q-108 0 -199 52t-143.5 142.5t-52.5 198.5q0 104 53.5 195t145 144.5t196.5 53.5q104 0 196.5 -53t145.5 -144t53 -196q0 -108 -52.5 -198.5t-143 -142.5t-199.5 -52zM715 377q0 84 -40 154.5t-109 110.5t-153 40q-82 0 -151.5 -40.5t-109 -110t-39.5 -154.5
q0 -84 42.5 -155.5t111.5 -110.5t147 -39t147 39t111.5 109.5t42.5 156.5zM351.5 851.5q-17.5 -17.5 -42.5 -17.5q-26 0 -43.5 17.5t-17.5 43.5q0 25 17.5 42.5t43.5 17.5q25 0 42.5 -17.5t17.5 -42.5q0 -26 -17.5 -43.5zM562.5 851.5q-17.5 -17.5 -42.5 -17.5
q-26 0 -43.5 17.5t-17.5 43.5q0 25 17.5 42.5t43.5 17.5q25 0 42.5 -17.5t17.5 -42.5q0 -26 -17.5 -43.5z" />
    <glyph glyph-name="multiply" unicode="&#xd7;" 
d="M289 317l196 195l60 -61l-195 -195l195 -195l-60 -61l-196 195l-196 -195l-60 61l195 195l-195 195l60 61z" />
    <glyph glyph-name="Oslash" unicode="&#xd8;" horiz-adv-x="828" 
d="M671 674l96 95l54 -53l-98 -96q42 -52 64 -114t22 -129q0 -109 -52.5 -199t-143.5 -142t-199 -52q-69 0 -131.5 21.5t-117.5 64.5l-104 -102l-54 53l104 102q-47 56 -69.5 120.5t-22.5 133.5q0 105 53 196t145 144t197 53q71 0 137 -24t120 -72zM178 189l430 423
q-42 36 -91.5 53t-103.5 17q-80 0 -150 -40t-110 -110.5t-40 -154.5q0 -51 16.5 -99.5t48.5 -88.5zM231 135q84 -63 183 -63q81 0 150.5 41t110 112t40.5 152q0 100 -56 180z" />
    <glyph glyph-name="Ugrave" unicode="&#xd9;" horiz-adv-x="669" 
d="M153 754v-450q0 -115 45.5 -173.5t136.5 -58.5q92 0 137 59.5t45 172.5v450h94v-481q0 -83 -35 -149.5t-97.5 -103t-143.5 -36.5q-83 0 -144.5 36.5t-96.5 104t-35 147.5v482h94zM284 995l125 -166l-44 -27l-164 149z" />
    <glyph glyph-name="Uacute" unicode="&#xda;" horiz-adv-x="669" 
d="M153 754v-450q0 -115 45.5 -173.5t136.5 -58.5q92 0 137 59.5t45 172.5v450h94v-481q0 -83 -35 -149.5t-97.5 -103t-143.5 -36.5q-83 0 -144.5 36.5t-96.5 104t-35 147.5v482h94zM469 951l-164 -149l-44 27l125 166z" />
    <glyph glyph-name="Ucircumflex" unicode="&#xdb;" horiz-adv-x="669" 
d="M153 754v-450q0 -115 45.5 -173.5t136.5 -58.5q92 0 137 59.5t45 172.5v450h94v-481q0 -83 -35 -149.5t-97.5 -103t-143.5 -36.5q-83 0 -144.5 36.5t-96.5 104t-35 147.5v482h94zM334 995l161 -145l-59 -46l-102 96l-101 -96l-58 46z" />
    <glyph glyph-name="Udieresis" unicode="&#xdc;" horiz-adv-x="669" 
d="M153 754v-450q0 -115 45.5 -173.5t136.5 -58.5q92 0 137 59.5t45 172.5v450h94v-481q0 -83 -35 -149.5t-97.5 -103t-143.5 -36.5q-83 0 -144.5 36.5t-96.5 104t-35 147.5v482h94zM272.5 851.5q-17.5 -17.5 -42.5 -17.5q-26 0 -43.5 17.5t-17.5 43.5q0 25 17.5 42.5
t43.5 17.5q25 0 42.5 -17.5t17.5 -42.5q0 -26 -17.5 -43.5zM483.5 851.5q-17.5 -17.5 -42.5 -17.5q-26 0 -43.5 17.5t-17.5 43.5q0 25 17.5 42.5t43.5 17.5q25 0 42.5 -17.5t17.5 -42.5q0 -26 -17.5 -43.5z" />
    <glyph glyph-name="Yacute" unicode="&#xdd;" horiz-adv-x="573" 
d="M102 754l185 -322l185 322h108l-246 -426v-328h-94v328l-246 426h108zM451 951l-164 -149l-44 27l125 166z" />
    <glyph glyph-name="Thorn" unicode="&#xde;" horiz-adv-x="495" 
d="M166 754v-140h12q87 0 155.5 -16.5t109.5 -64.5t41 -137q0 -103 -67.5 -161.5t-202.5 -58.5h-48v-176h-94v754h94zM166 260h29q109 0 155 34.5t46 103.5q0 67 -47 99.5t-158 32.5h-25v-270z" />
    <glyph glyph-name="germandbls" unicode="&#xdf;" horiz-adv-x="580" 
d="M411 497q66 -22 111 -88t45 -151q0 -73 -35.5 -136t-99 -100.5t-135.5 -37.5h-15v84q78 0 136.5 55.5t58.5 134.5q0 83 -53.5 130.5t-141.5 54.5v88q57 0 96 39t39 99q0 53 -37.5 90t-92.5 37q-33 0 -57 -11.5t-40.5 -36t-24 -62.5t-7.5 -114v-572h-90v386h-40v84h40v153
q0 127 56 192t166 65q92 0 154.5 -61.5t62.5 -154.5q0 -112 -96 -167z" />
    <glyph glyph-name="agrave" unicode="&#xe0;" horiz-adv-x="556" 
d="M409 390h2v78h90v-468h-90v73h-2q-27 -40 -67.5 -64.5t-91.5 -24.5q-100 0 -162 72.5t-62 180.5q0 69 30 126t80 88t111 31q51 0 92.5 -25t69.5 -67zM416 234q0 76 -43 122t-110 46q-63 0 -105 -49t-42 -119q0 -72 42 -121t106 -49q68 0 110 47.5t42 122.5zM242 734
l125 -166l-44 -27l-164 149z" />
    <glyph glyph-name="aacute" unicode="&#xe1;" horiz-adv-x="556" 
d="M409 390h2v78h90v-468h-90v73h-2q-27 -40 -67.5 -64.5t-91.5 -24.5q-100 0 -162 72.5t-62 180.5q0 69 30 126t80 88t111 31q51 0 92.5 -25t69.5 -67zM416 234q0 76 -43 122t-110 46q-63 0 -105 -49t-42 -119q0 -72 42 -121t106 -49q68 0 110 47.5t42 122.5zM422 690
l-164 -149l-44 27l125 166z" />
    <glyph glyph-name="acircumflex" unicode="&#xe2;" horiz-adv-x="556" 
d="M409 390h2v78h90v-468h-90v73h-2q-27 -40 -67.5 -64.5t-91.5 -24.5q-100 0 -162 72.5t-62 180.5q0 69 30 126t80 88t111 31q51 0 92.5 -25t69.5 -67zM416 234q0 76 -43 122t-110 46q-63 0 -105 -49t-42 -119q0 -72 42 -121t106 -49q68 0 110 47.5t42 122.5zM277 734
l161 -145l-59 -46l-102 96l-101 -96l-58 46z" />
    <glyph glyph-name="atilde" unicode="&#xe3;" horiz-adv-x="556" 
d="M409 390h2v78h90v-468h-90v73h-2q-27 -40 -67.5 -64.5t-91.5 -24.5q-100 0 -162 72.5t-62 180.5q0 69 30 126t80 88t111 31q51 0 92.5 -25t69.5 -67zM416 234q0 76 -43 122t-110 46q-63 0 -105 -49t-42 -119q0 -72 42 -121t106 -49q68 0 110 47.5t42 122.5zM359 641
q21 0 37 14.5t27 33.5l47 -39q-16 -35 -46.5 -58.5t-71.5 -23.5q-30 0 -82.5 25.5t-78.5 25.5q-18 0 -34 -15t-23 -31l-47 40q27 43 53 62t58 19q43 0 90 -27t71 -26z" />
    <glyph glyph-name="adieresis" unicode="&#xe4;" horiz-adv-x="556" 
d="M409 390h2v78h90v-468h-90v73h-2q-27 -40 -67.5 -64.5t-91.5 -24.5q-100 0 -162 72.5t-62 180.5q0 69 30 126t80 88t111 31q51 0 92.5 -25t69.5 -67zM416 234q0 76 -43 122t-110 46q-63 0 -105 -49t-42 -119q0 -72 42 -121t106 -49q68 0 110 47.5t42 122.5zM227.5 590.5
q-17.5 -17.5 -42.5 -17.5q-24 0 -42.5 17.5t-18.5 43.5q0 25 17.5 42.5t43.5 17.5q25 0 42.5 -17.5t17.5 -42.5q0 -26 -17.5 -43.5zM438.5 590.5q-17.5 -17.5 -42.5 -17.5q-27 0 -44 19.5t-17 41.5q0 25 17.5 42.5t43.5 17.5q25 0 42.5 -17.5t17.5 -42.5q0 -26 -17.5 -43.5z
" />
    <glyph glyph-name="aring" unicode="&#xe5;" horiz-adv-x="556" 
d="M409 390h2v78h90v-468h-90v73h-2q-27 -40 -67.5 -64.5t-91.5 -24.5q-100 0 -162 72.5t-62 180.5q0 69 30 126t80 88t111 31q51 0 92.5 -25t69.5 -67zM416 234q0 76 -43 122t-110 46q-63 0 -105 -49t-42 -119q0 -72 42 -121t106 -49q68 0 110 47.5t42 122.5zM342.5 579
q-26.5 -26 -64.5 -26t-64 26t-26 64t26 64.5t64 26.5t64.5 -26.5t26.5 -64.5t-26.5 -64zM310.5 611q13.5 13 13.5 32t-13.5 32.5t-32.5 13.5q-18 0 -31.5 -13.5t-13.5 -32.5t13.5 -32t31.5 -13q19 0 32.5 13z" />
    <glyph glyph-name="ae" unicode="&#xe6;" horiz-adv-x="807" 
d="M395 405q31 38 77.5 57.5t100.5 19.5q101 0 160 -66t59 -186v-11h-357q0 -60 39.5 -107.5t101.5 -47.5q52 0 83 24.5t57 66.5l76 -43q-33 -61 -90.5 -94.5t-126.5 -33.5q-54 0 -100 24t-80 63q-29 -44 -78 -65.5t-101 -21.5q-82 0 -136 43t-54 110q0 70 49 113.5
t128 43.5q35 0 74 -9.5t68 -33.5v30q0 60 -29 91.5t-95 31.5q-30 0 -59.5 -2.5t-67.5 -12.5v80q42 7 74.5 10t65.5 3q51 0 96 -20.5t65 -56.5zM704 287q-8 54 -42 85.5t-88 31.5q-51 0 -87 -33t-45 -84h262zM340 142q0 35 -36.5 55.5t-83.5 20.5q-46 0 -78 -23t-32 -56
t32.5 -54t81.5 -21q50 0 83 22t33 56z" />
    <glyph glyph-name="ccedilla" unicode="&#xe7;" horiz-adv-x="441" 
d="M406 451v-116q-54 63 -134 63q-64 0 -110 -49.5t-46 -114.5q0 -74 46 -120t116 -46q39 0 70 16t58 46v-115q-32 -17 -63 -24t-66 -7q-104 0 -177.5 71.5t-73.5 174.5q0 71 34 129t93 90.5t129 32.5q32 0 64.5 -7.5t59.5 -23.5zM229 -17l71 -29l-105 -135l-53 27zM123 -16
z" />
    <glyph glyph-name="egrave" unicode="&#xe8;" horiz-adv-x="488" 
d="M473 227v-8h-357q2 -68 42.5 -111.5t98.5 -43.5q52 0 83 24.5t57 66.5l76 -43q-33 -61 -90.5 -94.5t-126.5 -33.5q-101 0 -165.5 68t-64.5 178q0 115 61 183.5t167 68.5q102 0 160.5 -66.5t58.5 -188.5zM383 287q-8 54 -41.5 85.5t-88.5 31.5q-51 0 -87.5 -33.5
t-44.5 -83.5h262zM208 734l125 -166l-44 -27l-164 149z" />
    <glyph glyph-name="eacute" unicode="&#xe9;" horiz-adv-x="488" 
d="M473 227v-8h-357q2 -68 42.5 -111.5t98.5 -43.5q52 0 83 24.5t57 66.5l76 -43q-33 -61 -90.5 -94.5t-126.5 -33.5q-101 0 -165.5 68t-64.5 178q0 115 61 183.5t167 68.5q102 0 160.5 -66.5t58.5 -188.5zM383 287q-8 54 -41.5 85.5t-88.5 31.5q-51 0 -87.5 -33.5
t-44.5 -83.5h262zM388 690l-164 -149l-44 27l125 166z" />
    <glyph glyph-name="ecircumflex" unicode="&#xea;" horiz-adv-x="488" 
d="M473 227v-8h-357q2 -68 42.5 -111.5t98.5 -43.5q52 0 83 24.5t57 66.5l76 -43q-33 -61 -90.5 -94.5t-126.5 -33.5q-101 0 -165.5 68t-64.5 178q0 115 61 183.5t167 68.5q102 0 160.5 -66.5t58.5 -188.5zM383 287q-8 54 -41.5 85.5t-88.5 31.5q-51 0 -87.5 -33.5
t-44.5 -83.5h262zM243 734l161 -145l-59 -46l-102 96l-101 -96l-58 46z" />
    <glyph glyph-name="edieresis" unicode="&#xeb;" horiz-adv-x="488" 
d="M473 227v-8h-357q2 -68 42.5 -111.5t98.5 -43.5q52 0 83 24.5t57 66.5l76 -43q-33 -61 -90.5 -94.5t-126.5 -33.5q-101 0 -165.5 68t-64.5 178q0 115 61 183.5t167 68.5q102 0 160.5 -66.5t58.5 -188.5zM383 287q-8 54 -41.5 85.5t-88.5 31.5q-51 0 -87.5 -33.5
t-44.5 -83.5h262zM181.5 590.5q-17.5 -17.5 -42.5 -17.5q-24 0 -42.5 17.5t-18.5 43.5q0 25 17.5 42.5t43.5 17.5q25 0 42.5 -17.5t17.5 -42.5q0 -26 -17.5 -43.5zM392.5 590.5q-17.5 -17.5 -42.5 -17.5q-27 0 -44 19.5t-17 41.5q0 25 17.5 42.5t43.5 17.5q25 0 42.5 -17.5
t17.5 -42.5q0 -26 -17.5 -43.5z" />
    <glyph glyph-name="igrave" unicode="&#xec;" horiz-adv-x="254" 
d="M172 468v-468h-90v468h90zM77 734l125 -166l-44 -27l-164 149z" />
    <glyph glyph-name="iacute" unicode="&#xed;" horiz-adv-x="254" 
d="M172 468v-468h-90v468h90zM262 690l-164 -149l-44 27l125 166z" />
    <glyph glyph-name="icircumflex" unicode="&#xee;" horiz-adv-x="254" 
d="M172 468v-468h-90v468h90zM127 734l161 -145l-59 -46l-102 96l-101 -96l-58 46z" />
    <glyph glyph-name="idieresis" unicode="&#xef;" horiz-adv-x="254" 
d="M172 468v-468h-90v468h90zM65.5 590.5q-17.5 -17.5 -42.5 -17.5q-24 0 -42.5 17.5t-18.5 43.5q0 25 17.5 42.5t43.5 17.5q25 0 42.5 -17.5t17.5 -42.5q0 -26 -17.5 -43.5zM276.5 590.5q-17.5 -17.5 -42.5 -17.5q-27 0 -44 19.5t-17 41.5q0 25 17.5 42.5t43.5 17.5
q25 0 42.5 -17.5t17.5 -42.5q0 -26 -17.5 -43.5z" />
    <glyph glyph-name="eth" unicode="&#xf0;" horiz-adv-x="540" 
d="M137 877q32 -22 64.5 -50.5t64.5 -62.5l145 83l42 -55l-141 -81q102 -123 155 -241t53 -218q0 -120 -68.5 -194t-181.5 -74q-104 0 -177 71.5t-73 177.5q0 105 73 177t177 72q35 0 57.5 -9t48.5 -25q-55 115 -139 220l-147 -84l-44 54l145 83q-46 50 -66 67.5t-45 37.5z
M430 233q0 66 -47.5 114.5t-113.5 48.5q-64 0 -111.5 -48t-47.5 -115q0 -65 47.5 -114t112.5 -49q63 0 111.5 47t48.5 116z" />
    <glyph glyph-name="ntilde" unicode="&#xf1;" horiz-adv-x="523" 
d="M461 284v-284h-90v273q0 70 -22 99.5t-81 29.5q-61 0 -88.5 -38t-27.5 -134v-230h-90v468h90v-63h2q22 38 60 57.5t81 19.5q85 0 125.5 -49.5t40.5 -148.5zM343 641q21 0 37 14.5t27 33.5l47 -39q-16 -35 -46.5 -58.5t-71.5 -23.5q-30 0 -82.5 25.5t-78.5 25.5
q-18 0 -34 -15t-23 -31l-47 40q27 43 53 62t58 19q43 0 90 -27t71 -26z" />
    <glyph glyph-name="ograve" unicode="&#xf2;" horiz-adv-x="540" 
d="M270 -16q-68 0 -125 32t-91 90t-34 127t32.5 125t90 90t127.5 34q71 0 129.5 -35t89.5 -91t31 -123q0 -65 -30.5 -122t-89 -92t-130.5 -35zM430 233q0 68 -47.5 115.5t-113.5 47.5q-62 0 -110.5 -47.5t-48.5 -115.5q0 -65 47.5 -114t112.5 -49q66 0 113 48.5t47 114.5z
M209 734l125 -166l-44 -27l-164 149z" />
    <glyph glyph-name="oacute" unicode="&#xf3;" horiz-adv-x="540" 
d="M270 -16q-68 0 -125 32t-91 90t-34 127t32.5 125t90 90t127.5 34q71 0 129.5 -35t89.5 -91t31 -123q0 -65 -30.5 -122t-89 -92t-130.5 -35zM430 233q0 68 -47.5 115.5t-113.5 47.5q-62 0 -110.5 -47.5t-48.5 -115.5q0 -65 47.5 -114t112.5 -49q66 0 113 48.5t47 114.5z
M414 690l-164 -149l-44 27l125 166z" />
    <glyph glyph-name="ocircumflex" unicode="&#xf4;" horiz-adv-x="540" 
d="M270 -16q-68 0 -125 32t-91 90t-34 127t32.5 125t90 90t127.5 34q71 0 129.5 -35t89.5 -91t31 -123q0 -65 -30.5 -122t-89 -92t-130.5 -35zM430 233q0 68 -47.5 115.5t-113.5 47.5q-62 0 -110.5 -47.5t-48.5 -115.5q0 -65 47.5 -114t112.5 -49q66 0 113 48.5t47 114.5z
M269 734l161 -145l-59 -46l-102 96l-101 -96l-58 46z" />
    <glyph glyph-name="otilde" unicode="&#xf5;" horiz-adv-x="540" 
d="M270 -16q-68 0 -125 32t-91 90t-34 127t32.5 125t90 90t127.5 34q71 0 129.5 -35t89.5 -91t31 -123q0 -65 -30.5 -122t-89 -92t-130.5 -35zM430 233q0 68 -47.5 115.5t-113.5 47.5q-62 0 -110.5 -47.5t-48.5 -115.5q0 -65 47.5 -114t112.5 -49q66 0 113 48.5t47 114.5z
M351 641q21 0 37 14.5t27 33.5l47 -39q-16 -35 -46.5 -58.5t-71.5 -23.5q-30 0 -82.5 25.5t-78.5 25.5q-18 0 -34 -15t-23 -31l-47 40q27 43 53 62t58 19q43 0 90 -27t71 -26z" />
    <glyph glyph-name="odieresis" unicode="&#xf6;" horiz-adv-x="540" 
d="M270 -16q-68 0 -125 32t-91 90t-34 127t32.5 125t90 90t127.5 34q71 0 129.5 -35t89.5 -91t31 -123q0 -65 -30.5 -122t-89 -92t-130.5 -35zM430 233q0 68 -47.5 115.5t-113.5 47.5q-62 0 -110.5 -47.5t-48.5 -115.5q0 -65 47.5 -114t112.5 -49q66 0 113 48.5t47 114.5z
M207.5 590.5q-17.5 -17.5 -42.5 -17.5q-24 0 -42.5 17.5t-18.5 43.5q0 25 17.5 42.5t43.5 17.5q25 0 42.5 -17.5t17.5 -42.5q0 -26 -17.5 -43.5zM418.5 590.5q-17.5 -17.5 -42.5 -17.5q-27 0 -44 19.5t-17 41.5q0 25 17.5 42.5t43.5 17.5q25 0 42.5 -17.5t17.5 -42.5
q0 -26 -17.5 -43.5z" />
    <glyph glyph-name="divide" unicode="&#xf7;" 
d="M333 406.5q-18 -18.5 -44 -18.5t-44 18.5t-18 42.5q0 29 19 46t43 17q26 0 44 -18.5t18 -44.5q0 -24 -18 -42.5zM545 299v-86h-512v86h512zM331.5 16q-19.5 -16 -42.5 -16q-25 0 -43.5 17.5t-18.5 43.5t18 44.5t44 18.5t44 -18.5t18 -44.5q0 -29 -19.5 -45z" />
    <glyph glyph-name="oslash" unicode="&#xf8;" horiz-adv-x="540" 
d="M486 491l46 -43l-62 -63q23 -30 36.5 -68.5t13.5 -83.5q0 -106 -73.5 -177.5t-176.5 -71.5q-86 0 -149 48l-69 -70l-44 47l67 67q-26 31 -40.5 71t-14.5 86q0 105 73 177t177 72q45 0 84 -13.5t71 -38.5zM139 141l223 225q-39 30 -93 30q-64 0 -111.5 -48t-47.5 -115
q0 -51 29 -92zM184 96q38 -26 86 -26q66 0 113 48.5t47 114.5q0 48 -25 86z" />
    <glyph glyph-name="ugrave" unicode="&#xf9;" horiz-adv-x="512" 
d="M148 468v-263q0 -72 27.5 -104.5t80.5 -32.5q59 0 83.5 36t24.5 101v263h90v-273q0 -101 -51 -156t-147 -55q-99 0 -148.5 57t-49.5 155v272h90zM195 734l125 -166l-44 -27l-164 149z" />
    <glyph glyph-name="uacute" unicode="&#xfa;" horiz-adv-x="512" 
d="M148 468v-263q0 -72 27.5 -104.5t80.5 -32.5q59 0 83.5 36t24.5 101v263h90v-273q0 -101 -51 -156t-147 -55q-99 0 -148.5 57t-49.5 155v272h90zM400 690l-164 -149l-44 27l125 166z" />
    <glyph glyph-name="ucircumflex" unicode="&#xfb;" horiz-adv-x="512" 
d="M148 468v-263q0 -72 27.5 -104.5t80.5 -32.5q59 0 83.5 36t24.5 101v263h90v-273q0 -101 -51 -156t-147 -55q-99 0 -148.5 57t-49.5 155v272h90zM255 734l161 -145l-59 -46l-102 96l-101 -96l-58 46z" />
    <glyph glyph-name="udieresis" unicode="&#xfc;" horiz-adv-x="512" 
d="M148 468v-263q0 -72 27.5 -104.5t80.5 -32.5q59 0 83.5 36t24.5 101v263h90v-273q0 -101 -51 -156t-147 -55q-99 0 -148.5 57t-49.5 155v272h90zM193.5 590.5q-17.5 -17.5 -42.5 -17.5q-24 0 -42.5 17.5t-18.5 43.5q0 25 17.5 42.5t43.5 17.5q25 0 42.5 -17.5t17.5 -42.5
q0 -26 -17.5 -43.5zM404.5 590.5q-17.5 -17.5 -42.5 -17.5q-27 0 -44 19.5t-17 41.5q0 25 17.5 42.5t43.5 17.5q25 0 42.5 -17.5t17.5 -42.5q0 -26 -17.5 -43.5z" />
    <glyph glyph-name="yacute" unicode="&#xfd;" horiz-adv-x="484" 
d="M92 468l158 -297l147 297h101l-379 -736h-102l184 348l-214 388h105zM406 690l-164 -149l-44 27l125 166z" />
    <glyph glyph-name="thorn" unicode="&#xfe;" horiz-adv-x="556" 
d="M145 868v-478h2q28 42 69.5 67t93.5 25q60 0 111 -31.5t80 -88t29 -125.5q0 -112 -63 -182.5t-161 -70.5q-49 0 -90.5 24.5t-68.5 64.5h-2v-341h-90v1136h90zM440 234q0 76 -43.5 122t-109.5 46q-63 0 -105 -49t-42 -119q0 -72 42 -121t106 -49q68 0 110 47t42 123z" />
    <glyph glyph-name="ydieresis" unicode="&#xff;" horiz-adv-x="484" 
d="M92 468l158 -297l147 297h101l-379 -736h-102l184 348l-214 388h105zM189.5 590.5q-17.5 -17.5 -42.5 -17.5q-24 0 -42.5 17.5t-18.5 43.5q0 25 17.5 42.5t43.5 17.5q25 0 42.5 -17.5t17.5 -42.5q0 -26 -17.5 -43.5zM400.5 590.5q-17.5 -17.5 -42.5 -17.5q-27 0 -44 19.5
t-17 41.5q0 25 17.5 42.5t43.5 17.5q25 0 42.5 -17.5t17.5 -42.5q0 -26 -17.5 -43.5z" />
    <glyph glyph-name="Dcroat" unicode="&#x110;" horiz-adv-x="665" 
d="M226 754q89 0 169 -26.5t136 -76.5t84 -117.5t28 -152.5q0 -116 -51.5 -202.5t-148 -132.5t-220.5 -46h-159v362h-64v80h64v312h162zM158 442h134v-80h-134v-276h24q184 0 277 76q90 76 90 215q0 141 -88 215q-94 76 -276 76h-27v-226z" />
    <glyph glyph-name="dotlessi" unicode="&#x131;" horiz-adv-x="254" 
d="M172 468v-468h-90v468h90z" />
    <glyph glyph-name="OE" unicode="&#x152;" horiz-adv-x="1143" 
d="M716 623h2v131h395v-86h-310v-211h301v-86h-301v-285h310v-86h-395v126h-2q-54 -72 -132.5 -107t-166.5 -35q-110 0 -201 51.5t-144 142.5t-53 199q0 104 53.5 195.5t144.5 144.5t195 53q85 0 171 -40.5t133 -106.5zM715 377q0 85 -41 156.5t-110.5 110t-150.5 38.5
q-82 0 -151 -40t-109 -110.5t-40 -154.5q0 -82 40.5 -152.5t110 -111.5t150.5 -41t150.5 41t110 112t40.5 152z" />
    <glyph glyph-name="oe" unicode="&#x153;" horiz-adv-x="897" 
d="M470 377q39 57 89.5 81t105.5 24q100 0 158.5 -66.5t58.5 -188.5v-8h-357q0 -65 41.5 -110t99.5 -45q52 0 83.5 24.5t56.5 66.5l76 -43q-33 -61 -90.5 -94.5t-126.5 -33.5q-63 0 -114.5 27.5t-80.5 75.5q-33 -49 -85 -76t-112 -27q-107 0 -180 72t-73 177q0 69 34.5 127
t91 90t122.5 32q53 0 109 -27.5t93 -77.5zM791 287q-8 54 -42 85.5t-88 31.5q-52 0 -88 -33t-44 -84h262zM430 233q0 67 -47 115t-114 48q-63 0 -111 -47.5t-48 -115.5q0 -65 47 -114t113 -49t113 48.5t47 114.5z" />
    <glyph glyph-name="Scaron" unicode="&#x160;" horiz-adv-x="537" 
d="M482 656l-75 -45q-21 35 -49.5 53t-71.5 18q-50 0 -88 -31t-38 -76q0 -36 26.5 -62.5t77.5 -45.5l55 -21q95 -36 141 -90t46 -137q0 -103 -70.5 -169t-170.5 -66q-88 0 -153.5 58t-79.5 153l95 20q0 -61 42 -102t104 -41q58 0 98.5 42t40.5 105q0 49 -29.5 81t-100.5 62
l-52 22q-90 38 -127 84t-37 107q0 84 64.5 139.5t157.5 55.5q63 0 113 -29.5t81 -84.5zM177 995l101 -96l102 96l59 -46l-161 -145l-159 145z" />
    <glyph glyph-name="scaron" unicode="&#x161;" horiz-adv-x="384" 
d="M323 400l-73 -39q-8 17 -23.5 29t-36.5 12q-19 0 -34 -13.5t-15 -32.5q0 -21 20 -37.5t62 -34.5l27 -12q55 -24 81.5 -55t26.5 -78q0 -65 -47 -110t-114 -45q-54 0 -99 29t-63 76l77 35q14 -26 33.5 -43t51.5 -17q29 0 50 18t21 48q0 20 -10.5 32t-41.5 29l-69 37
q-45 23 -67.5 49t-22.5 69q0 55 41 95.5t97 40.5q43 0 76 -22t52 -60zM91 734l101 -96l102 96l59 -46l-161 -145l-159 145z" />
    <glyph glyph-name="Ydieresis" unicode="&#x178;" horiz-adv-x="573" 
d="M102 754l185 -322l185 322h108l-246 -426v-328h-94v328l-246 426h108zM236.5 851.5q-17.5 -17.5 -42.5 -17.5q-26 0 -43.5 17.5t-17.5 43.5q0 25 17.5 42.5t43.5 17.5q25 0 42.5 -17.5t17.5 -42.5q0 -26 -17.5 -43.5zM447.5 851.5q-17.5 -17.5 -42.5 -17.5
q-26 0 -43.5 17.5t-17.5 43.5q0 25 17.5 42.5t43.5 17.5q25 0 42.5 -17.5t17.5 -42.5q0 -26 -17.5 -43.5z" />
    <glyph glyph-name="Zcaron" unicode="&#x17d;" horiz-adv-x="552" 
d="M544 754l-382 -668h382v-86h-535l382 668h-328v86h481zM189 995l101 -96l102 96l59 -46l-161 -145l-159 145z" />
    <glyph glyph-name="zcaron" unicode="&#x17e;" horiz-adv-x="495" 
d="M494 468l-317 -384h304v-84h-479l317 384h-263v84h438zM161 734l101 -96l102 96l59 -46l-161 -145l-159 145z" />
    <glyph glyph-name="florin" unicode="&#x192;" 
d="M540 829l-16 -84q-18 7 -41 7q-28 0 -47 -11t-32 -31.5t-22 -66.5l-27 -138h129l-9 -68h-131l-55 -302q-24 -132 -50.5 -182t-74.5 -76t-130 -26h-20l15 86h13q53 0 81 19t42 51t30 122l53 308h-65l9 68h70l20 120q17 105 61.5 158t136.5 53q17 0 32 -2t28 -5z" />
    <glyph glyph-name="uni0237" unicode="&#x237;" horiz-adv-x="254" 
d="M172 468v-736h-90v736h90z" />
    <glyph glyph-name="circumflex" unicode="&#x2c6;" horiz-adv-x="470" 
d="M234 734l161 -145l-59 -46l-102 96l-101 -96l-58 46z" />
    <glyph glyph-name="caron" unicode="&#x2c7;" horiz-adv-x="472" 
d="M134 734l101 -96l102 96l59 -46l-161 -145l-159 145z" />
    <glyph glyph-name="ring" unicode="&#x2da;" horiz-adv-x="360" 
d="M244.5 579q-26.5 -26 -64.5 -26t-64 26t-26 64t26 64.5t64 26.5t64.5 -26.5t26.5 -64.5t-26.5 -64zM212.5 611q13.5 13 13.5 32t-13.5 32.5t-32.5 13.5q-18 0 -31.5 -13.5t-13.5 -32.5t13.5 -32t31.5 -13q19 0 32.5 13z" />
    <glyph glyph-name="tilde" unicode="&#x2dc;" horiz-adv-x="510" 
d="M336 641q21 0 37 14.5t27 33.5l47 -39q-16 -35 -46.5 -58.5t-71.5 -23.5q-30 0 -82.5 25.5t-78.5 25.5q-18 0 -34 -15t-23 -31l-47 40q27 43 53 62t58 19q43 0 90 -27t71 -26z" />
    <glyph glyph-name="endash" unicode="&#x2013;" horiz-adv-x="500" 
d="M500 358v-75h-500v75h500z" />
    <glyph glyph-name="emdash" unicode="&#x2014;" horiz-adv-x="1000" 
d="M870 358v-75h-740v75h740z" />
    <glyph glyph-name="quoteleft" unicode="&#x2018;" horiz-adv-x="277" 
d="M193 770l56 -23l-110 -275l-79 31z" />
    <glyph glyph-name="quoteright" unicode="&#x2019;" horiz-adv-x="277" 
d="M138 770l79 -31l-133 -267l-56 23z" />
    <glyph glyph-name="quotesinglbase" unicode="&#x201a;" horiz-adv-x="277" 
d="M164 119l78 -31l-133 -267l-55 23z" />
    <glyph glyph-name="quotedblleft" unicode="&#x201c;" horiz-adv-x="439" 
d="M193 770l56 -23l-110 -275l-79 31zM359 770l56 -23l-110 -275l-79 31z" />
    <glyph glyph-name="quotedblright" unicode="&#x201d;" horiz-adv-x="439" 
d="M134 770l79 -31l-133 -267l-56 23zM300 770l79 -31l-133 -267l-56 23z" />
    <glyph glyph-name="quotedblbase" unicode="&#x201e;" horiz-adv-x="439" 
d="M160 119l78 -31l-133 -267l-55 23zM326 119l78 -31l-133 -267l-55 23z" />
    <glyph glyph-name="dagger" unicode="&#x2020;" 
d="M334 868v-275h181v-86h-181v-595h-90v595h-181v86h181v275h90z" />
    <glyph glyph-name="daggerdbl" unicode="&#x2021;" 
d="M334 868v-239h181v-86h-181v-122h181v-86h-181v-422h-90v422h-181v86h181v122h-181v86h181v239h90z" />
    <glyph glyph-name="bullet" unicode="&#x2022;" 
d="M422.5 244.5q-55.5 -55.5 -133.5 -55.5t-133 56t-55 132q0 80 55.5 134.5t132.5 54.5q76 0 132.5 -54.5t56.5 -134.5q0 -77 -55.5 -132.5z" />
    <glyph glyph-name="ellipsis" unicode="&#x2026;" horiz-adv-x="1000" 
d="M207 1q-17 -17 -41 -17t-41 17t-17 41q0 23 17 40.5t41 17.5t41 -17.5t17 -40.5q0 -24 -17 -41zM541 1q-17 -17 -41 -17t-41 17t-17 41q0 23 17 40.5t41 17.5t41 -17.5t17 -40.5q0 -24 -17 -41zM875 1q-17 -17 -41 -17t-41 17t-17 41q0 23 17 40.5t41 17.5t41 -17.5
t17 -40.5q0 -24 -17 -41z" />
    <glyph glyph-name="perthousand" unicode="&#x2030;" horiz-adv-x="1110" 
d="M322.5 478q-51.5 -51 -124.5 -51t-124.5 51t-51.5 120q0 70 52.5 121t123.5 51q72 0 124 -50.5t52 -121.5q0 -69 -51.5 -120zM557 770l45 -26l-440 -760l-46 25zM278.5 519.5q35.5 32.5 35.5 78.5q0 47 -35.5 79.5t-81.5 32.5t-80.5 -33t-34.5 -79t35.5 -78.5t80.5 -32.5
t80.5 32.5zM645.5 35q-51.5 -51 -124.5 -51t-124.5 51t-51.5 120q0 70 52.5 121t123.5 51q72 0 124 -50.5t52 -121.5q0 -69 -51.5 -120zM1037.5 35q-51.5 -51 -124.5 -51q-71 0 -123.5 51.5t-52.5 119.5q0 70 52.5 121t123.5 51q72 0 124 -50.5t52 -121.5q0 -69 -51.5 -120z
M601.5 76.5q35.5 32.5 35.5 78.5q0 47 -35.5 79.5t-81.5 32.5t-80.5 -33t-34.5 -79t35.5 -78.5t80.5 -32.5t80.5 32.5zM993.5 76.5q35.5 32.5 35.5 78.5q0 47 -35.5 79.5t-81.5 32.5q-45 0 -80 -33.5t-35 -78.5q0 -46 35.5 -78.5t80.5 -32.5t80.5 32.5z" />
    <glyph glyph-name="guilsinglleft" unicode="&#x2039;" horiz-adv-x="336" 
d="M260 519l-149 -199l149 -191l-56 -41l-182 232l182 240z" />
    <glyph glyph-name="guilsinglright" unicode="&#x203a;" horiz-adv-x="336" 
d="M132 560l182 -240l-182 -232l-56 41l149 191l-149 199z" />
    <glyph glyph-name="fraction" unicode="&#x2044;" horiz-adv-x="165" 
d="M277 770l51 -26l-440 -760l-51 28z" />
    <glyph glyph-name="Euro" unicode="&#x20ac;" 
d="M558 735l-32 -80q-52 31 -129 31q-75 0 -132 -51.5t-78 -137.5h299l-23 -75h-291q-3 -13 -3.5 -43.5t2.5 -49.5h261l-23 -75h-226q14 -80 73.5 -133.5t138.5 -53.5q77 0 136 38l36 -75q-32 -23 -78 -35.5t-100 -12.5q-118 0 -198 71.5t-106 200.5h-82l24 75h48
q-2 21 -2 48.5t3 44.5h-71l26 75h57q30 128 114.5 200.5t198.5 72.5q45 0 86.5 -9.5t70.5 -25.5z" />
    <glyph glyph-name="trademark" unicode="&#x2122;" horiz-adv-x="940" 
d="M374 754v-64h-138v-357h-64v357h-138v64h340zM556 754l121 -297l125 297h104v-421h-64v357h-2l-144 -357h-39l-140 357h-2v-357h-64v421h105z" />
    <glyph glyph-name="glyph223" horiz-adv-x="360" 
d="M159 995l125 -166l-44 -27l-164 149z" />
    <glyph glyph-name="glyph224" horiz-adv-x="360" 
d="M284 951l-164 -149l-44 27l125 166z" />
    <glyph glyph-name="glyph225" horiz-adv-x="470" 
d="M234 995l161 -145l-59 -46l-102 96l-101 -96l-58 46z" />
    <glyph glyph-name="glyph226" horiz-adv-x="510" 
d="M336 902q22 0 37 14.5t27 33.5l47 -39q-17 -35 -46.5 -58.5t-71.5 -23.5q-32 0 -82.5 25.5t-78.5 25.5q-17 0 -33 -15t-24 -31l-47 40q27 44 53 62.5t58 18.5q42 0 89 -26.5t72 -26.5z" />
    <glyph glyph-name="glyph227" horiz-adv-x="470" 
d="M172.5 851.5q-17.5 -17.5 -42.5 -17.5q-26 0 -43.5 17.5t-17.5 43.5q0 25 17.5 42.5t43.5 17.5q25 0 42.5 -17.5t17.5 -42.5q0 -26 -17.5 -43.5zM383.5 851.5q-17.5 -17.5 -42.5 -17.5q-26 0 -43.5 17.5t-17.5 43.5q0 25 17.5 42.5t43.5 17.5q25 0 42.5 -17.5t17.5 -42.5
q0 -26 -17.5 -43.5z" />
    <glyph glyph-name="glyph228" horiz-adv-x="360" 
d="M244.5 840q-26.5 -26 -64.5 -26t-64 26t-26 64t26 64.5t64 26.5t64.5 -26.5t26.5 -64.5t-26.5 -64zM212.5 872q13.5 13 13.5 32t-13.5 32.5t-32.5 13.5q-18 0 -31.5 -13.5t-13.5 -32.5t13.5 -32t31.5 -13q19 0 32.5 13z" />
    <glyph glyph-name="glyph230" horiz-adv-x="472" 
d="M134 995l101 -96l102 96l59 -46l-161 -145l-159 145z" />
    </font>
</defs>
</svg>
