<svg id="visual" viewBox="0 0 1300 200" width="1300" height="200" xmlns="http://www.w3.org/2000/svg" xmlns:xlink="http://www.w3.org/1999/xlink" version="1.1"><rect x="0" y="0" width="1300" height="200" fill="#2c2912"></rect><path d="M0 78L11.3 85.2C22.7 92.3 45.3 106.7 68.2 105.8C91 105 114 89 136.8 83.7C159.7 78.3 182.3 83.7 205.2 88.5C228 93.3 251 97.7 273.8 98.8C296.7 100 319.3 98 342.2 94.3C365 90.7 388 85.3 410.8 90.7C433.7 96 456.3 112 479 119.7C501.7 127.3 524.3 126.7 547.2 118C570 109.3 593 92.7 615.8 83.7C638.7 74.7 661.3 73.3 684.2 74.2C707 75 730 78 752.8 85.7C775.7 93.3 798.3 105.7 821 105C843.7 104.3 866.3 90.7 889.2 88.2C912 85.7 935 94.3 957.8 96.2C980.7 98 1003.3 93 1026.2 89.2C1049 85.3 1072 82.7 1094.8 85.2C1117.7 87.7 1140.3 95.3 1163.2 95.7C1186 96 1209 89 1231.8 91.7C1254.7 94.3 1277.3 106.7 1288.7 112.8L1300 119L1300 201L1288.7 201C1277.3 201 1254.7 201 1231.8 201C1209 201 1186 201 1163.2 201C1140.3 201 1117.7 201 1094.8 201C1072 201 1049 201 1026.2 201C1003.3 201 980.7 201 957.8 201C935 201 912 201 889.2 201C866.3 201 843.7 201 821 201C798.3 201 775.7 201 752.8 201C730 201 707 201 684.2 201C661.3 201 638.7 201 615.8 201C593 201 570 201 547.2 201C524.3 201 501.7 201 479 201C456.3 201 433.7 201 410.8 201C388 201 365 201 342.2 201C319.3 201 296.7 201 273.8 201C251 201 228 201 205.2 201C182.3 201 159.7 201 136.8 201C114 201 91 201 68.2 201C45.3 201 22.7 201 11.3 201L0 201Z" fill="#F4b724" stroke-linecap="round" stroke-linejoin="miter"></path></svg>