<svg id="visual" viewBox="0 0 1300 200" width="1300" height="200" xmlns="http://www.w3.org/2000/svg" xmlns:xlink="http://www.w3.org/1999/xlink" version="1.1"><rect x="0" y="0" width="1300" height="200" fill="#2c2912"></rect><path d="M0 100L10.8 95.5C21.7 91 43.3 82 65 74C86.7 66 108.3 59 130 55.2C151.7 51.3 173.3 50.7 195 52C216.7 53.3 238.3 56.7 260 71.3C281.7 86 303.3 112 325 115.3C346.7 118.7 368.3 99.3 390 99.7C411.7 100 433.3 120 455 128.2C476.7 136.3 498.3 132.7 520 125.3C541.7 118 563.3 107 585 95.7C606.7 84.3 628.3 72.7 650 67.2C671.7 61.7 693.3 62.3 715 71.2C736.7 80 758.3 97 780 104.5C801.7 112 823.3 110 845 106.7C866.7 103.3 888.3 98.7 910 92.7C931.7 86.7 953.3 79.3 975 88.5C996.7 97.7 1018.3 123.3 1040 122.2C1061.7 121 1083.3 93 1105 77C1126.7 61 1148.3 57 1170 64.3C1191.7 71.7 1213.3 90.3 1235 100.2C1256.7 110 1278.3 111 1289.2 111.5L1300 112L1300 201L1289.2 201C1278.3 201 1256.7 201 1235 201C1213.3 201 1191.7 201 1170 201C1148.3 201 1126.7 201 1105 201C1083.3 201 1061.7 201 1040 201C1018.3 201 996.7 201 975 201C953.3 201 931.7 201 910 201C888.3 201 866.7 201 845 201C823.3 201 801.7 201 780 201C758.3 201 736.7 201 715 201C693.3 201 671.7 201 650 201C628.3 201 606.7 201 585 201C563.3 201 541.7 201 520 201C498.3 201 476.7 201 455 201C433.3 201 411.7 201 390 201C368.3 201 346.7 201 325 201C303.3 201 281.7 201 260 201C238.3 201 216.7 201 195 201C173.3 201 151.7 201 130 201C108.3 201 86.7 201 65 201C43.3 201 21.7 201 10.8 201L0 201Z" fill="#2b2f31" stroke-linecap="round" stroke-linejoin="miter"></path></svg>