<svg id="visual" viewBox="0 0 1300 200" width="1300" height="200" xmlns="http://www.w3.org/2000/svg" xmlns:xlink="http://www.w3.org/1999/xlink" version="1.1"><rect x="0" y="0" width="1300" height="200" fill="#f4b724"></rect><path d="M0 54L12 60C24 66 48 78 72 79.2C96 80.3 120 70.7 144.2 74.8C168.3 79 192.7 97 216.8 97C241 97 265 79 289 81.7C313 84.3 337 107.7 361 121C385 134.3 409 137.7 433.2 135.8C457.3 134 481.7 127 505.8 118.5C530 110 554 100 578 101.7C602 103.3 626 116.7 650 121.5C674 126.3 698 122.7 722 111.7C746 100.7 770 82.3 794.2 78.5C818.3 74.7 842.7 85.3 866.8 83.5C891 81.7 915 67.3 939 73.7C963 80 987 107 1011 118.5C1035 130 1059 126 1083.2 117.8C1107.3 109.7 1131.7 97.3 1155.8 92.3C1180 87.3 1204 89.7 1228 91.3C1252 93 1276 94 1288 94.5L1300 95L1300 201L1288 201C1276 201 1252 201 1228 201C1204 201 1180 201 1155.8 201C1131.7 201 1107.3 201 1083.2 201C1059 201 1035 201 1011 201C987 201 963 201 939 201C915 201 891 201 866.8 201C842.7 201 818.3 201 794.2 201C770 201 746 201 722 201C698 201 674 201 650 201C626 201 602 201 578 201C554 201 530 201 505.8 201C481.7 201 457.3 201 433.2 201C409 201 385 201 361 201C337 201 313 201 289 201C265 201 241 201 216.8 201C192.7 201 168.3 201 144.2 201C120 201 96 201 72 201C48 201 24 201 12 201L0 201Z" fill="#2b2f31" stroke-linecap="round" stroke-linejoin="miter"></path></svg>