<svg id="visual" viewBox="0 0 1300 200" width="1300" height="200" xmlns="http://www.w3.org/2000/svg" xmlns:xlink="http://www.w3.org/1999/xlink" version="1.1"><rect x="0" y="0" width="1300" height="200" fill="#FFFFFF"></rect><path d="M0 89L11.3 91C22.7 93 45.3 97 68.2 94.5C91 92 114 83 136.8 82C159.7 81 182.3 88 205.2 95.7C228 103.3 251 111.7 273.8 116.8C296.7 122 319.3 124 342.2 122.2C365 120.3 388 114.7 410.8 109.8C433.7 105 456.3 101 479 98.5C501.7 96 524.3 95 547.2 95.8C570 96.7 593 99.3 615.8 99.7C638.7 100 661.3 98 684.2 95.7C707 93.3 730 90.7 752.8 91.2C775.7 91.7 798.3 95.3 821 98.7C843.7 102 866.3 105 889.2 103.8C912 102.7 935 97.3 957.8 93C980.7 88.7 1003.3 85.3 1026.2 85.5C1049 85.7 1072 89.3 1094.8 88.3C1117.7 87.3 1140.3 81.7 1163.2 85.3C1186 89 1209 102 1231.8 101.2C1254.7 100.3 1277.3 85.7 1288.7 78.3L1300 71L1300 201L1288.7 201C1277.3 201 1254.7 201 1231.8 201C1209 201 1186 201 1163.2 201C1140.3 201 1117.7 201 1094.8 201C1072 201 1049 201 1026.2 201C1003.3 201 980.7 201 957.8 201C935 201 912 201 889.2 201C866.3 201 843.7 201 821 201C798.3 201 775.7 201 752.8 201C730 201 707 201 684.2 201C661.3 201 638.7 201 615.8 201C593 201 570 201 547.2 201C524.3 201 501.7 201 479 201C456.3 201 433.7 201 410.8 201C388 201 365 201 342.2 201C319.3 201 296.7 201 273.8 201C251 201 228 201 205.2 201C182.3 201 159.7 201 136.8 201C114 201 91 201 68.2 201C45.3 201 22.7 201 11.3 201L0 201Z" fill="#2c2912" stroke-linecap="round" stroke-linejoin="miter"></path></svg>