<svg id="visual" viewBox="0 0 1300 200" width="1300" height="200" xmlns="http://www.w3.org/2000/svg" xmlns:xlink="http://www.w3.org/1999/xlink" version="1.1"><rect x="0" y="0" width="1300" height="200" fill="#F4b724"></rect><path d="M0 80L11.3 81.3C22.7 82.7 45.3 85.3 68.2 86.3C91 87.3 114 86.7 136.8 90.3C159.7 94 182.3 102 205.2 102.3C228 102.7 251 95.3 273.8 96.5C296.7 97.7 319.3 107.3 342.2 113.7C365 120 388 123 410.8 115.2C433.7 107.3 456.3 88.7 479 85.2C501.7 81.7 524.3 93.3 547.2 95C570 96.7 593 88.3 615.8 87.8C638.7 87.3 661.3 94.7 684.2 98.2C707 101.7 730 101.3 752.8 101.2C775.7 101 798.3 101 821 97.7C843.7 94.3 866.3 87.7 889.2 83.3C912 79 935 77 957.8 83.8C980.7 90.7 1003.3 106.3 1026.2 110.8C1049 115.3 1072 108.7 1094.8 100.2C1117.7 91.7 1140.3 81.3 1163.2 84.2C1186 87 1209 103 1231.8 110.3C1254.7 117.7 1277.3 116.3 1288.7 115.7L1300 115L1300 201L1288.7 201C1277.3 201 1254.7 201 1231.8 201C1209 201 1186 201 1163.2 201C1140.3 201 1117.7 201 1094.8 201C1072 201 1049 201 1026.2 201C1003.3 201 980.7 201 957.8 201C935 201 912 201 889.2 201C866.3 201 843.7 201 821 201C798.3 201 775.7 201 752.8 201C730 201 707 201 684.2 201C661.3 201 638.7 201 615.8 201C593 201 570 201 547.2 201C524.3 201 501.7 201 479 201C456.3 201 433.7 201 410.8 201C388 201 365 201 342.2 201C319.3 201 296.7 201 273.8 201C251 201 228 201 205.2 201C182.3 201 159.7 201 136.8 201C114 201 91 201 68.2 201C45.3 201 22.7 201 11.3 201L0 201Z" fill="#FFFFFF" stroke-linecap="round" stroke-linejoin="miter"></path></svg>